<?xml version="1.0" encoding="UTF-8" standalone="no"?>
<svg
   viewBox="0 0 512 560"
   width="512"
   height="560"
   version="1.1"
   id="svg37"
   xmlns="http://www.w3.org/2000/svg"
   xmlns:svg="http://www.w3.org/2000/svg">
  <title
     id="title1">ANSOR Halol Market Logo</title>
  <desc
     id="desc1">Clean SVG recreation of the supplied ANSOR logo with transparent background.</desc>
  <defs
     id="defs6">
    <radialGradient
       id="sunGrad"
       cx="50%"
       cy="42%"
       r="62%">
      <stop
         offset="0%"
         stop-color="#ffd7a1"
         id="stop1" />
      <stop
         offset="62%"
         stop-color="#e8a261"
         id="stop2" />
      <stop
         offset="100%"
         stop-color="#d8894d"
         id="stop3" />
    </radialGradient>
    <linearGradient
       id="titleGrad"
       x1="0"
       y1="0"
       x2="0"
       y2="1">
      <stop
         offset="0%"
         stop-color="#7c3824"
         id="stop4" />
      <stop
         offset="45%"
         stop-color="#5e2a1e"
         id="stop5" />
      <stop
         offset="100%"
         stop-color="#8a4429"
         id="stop6" />
    </linearGradient>
    <path
       id="topArc"
       d="M 128 108 A 138 138 0 0 1 384 108" />
  </defs>
  <g
     id="ansor-logo"
     fill-rule="evenodd">
    <!-- round emblem -->
    <g
       id="round-mark">
      <circle
         cx="256"
         cy="162"
         r="131"
         fill="#fff7ee"
         id="circle6" />
      <circle
         cx="256"
         cy="162"
         r="122"
         fill="url(#sunGrad)"
         stroke="#6b2f20"
         stroke-width="4"
         id="circle7" />
      <circle
         cx="256"
         cy="162"
         r="111"
         fill="none"
         stroke="#fff7ee"
         stroke-width="6"
         opacity="0.9"
         id="circle8" />
      <circle
         cx="256"
         cy="162"
         r="101"
         fill="none"
         stroke="#6b2f20"
         stroke-width="2"
         opacity="0.75"
         id="circle9" />
    </g>
    <!-- curved top text -->
    <path
       style="font-weight:700;font-size:20px;font-family:Georgia, 'Noto Serif', 'Times New Roman', serif;letter-spacing:0.2;text-anchor:middle;fill:#5d291d;stroke:#fff7ee;stroke-width:2.7;paint-order:stroke fill"
       d="m 129.68474,103.47999 -0.94354,-0.48305 0.38279,-0.74771 q 0.1914,-0.37385 0.13228,-0.74115 -0.0591,-0.36729 -0.82463,-0.7592 l -8.58088,-4.392964 q -0.7121,-0.364562 -1.03595,-0.17086 -0.33254,0.166785 -0.51482,0.522838 l -0.38279,0.747711 -0.94354,-0.483044 3.14434,-6.141913 0.94354,0.483044 -0.3919,0.765514 q -0.1914,0.373855 -0.13228,0.74115 0.0591,0.367294 0.82463,0.759198 l 3.43591,1.75901 2.37877,-4.64649 -3.43591,-1.759011 q -0.76552,-0.391904 -1.09805,-0.225119 -0.33254,0.166786 -0.52394,0.540641 l -0.3919,0.765514 -0.94354,-0.483044 3.14434,-6.141913 0.94354,0.483044 -0.38279,0.747711 q -0.19139,0.373856 -0.13227,0.74115 0.0591,0.367294 0.82463,0.759198 l 8.59868,4.402083 q 0.7121,0.364562 1.02684,0.188663 0.32385,-0.193702 0.50613,-0.549755 l 0.38279,-0.747711 0.94354,0.483044 -3.14434,6.141913 -0.94354,-0.483044 0.3919,-0.765514 q 0.19139,-0.373855 0.13228,-0.74115 -0.0591,-0.367294 -0.82464,-0.759198 l -3.98779,-2.041546 -2.37876,4.646491 3.98779,2.041546 q 0.76551,0.391904 1.09805,0.225119 0.33254,-0.166786 0.52394,-0.540641 l 0.3919,-0.765514 0.94354,0.483044 z m 9.78788,-17.484767 q -0.72048,1.106031 -1.89296,1.440247 -1.16156,0.317457 -2.55247,-0.588602 -1.35741,-0.884228 -1.39965,-2.248418 -0.0423,-1.36419 1.11335,-3.284758 l 0.84487,-1.40691 -0.92169,-0.600402 q -0.83791,-0.545819 -1.49424,-0.710804 -0.64543,-0.181744 -1.093,0.505336 -0.41482,0.636807 -0.0591,1.226586 0.34992,0.562104 1.13755,1.075174 -0.7314,1.12279 -1.35393,1.528818 -0.62253,0.406029 -1.24258,0.0021 -0.62004,-0.403906 -0.68306,-1.113292 -0.063,-0.709386 0.28247,-1.606179 0.32873,-0.907709 0.94005,-1.84616 1.14622,-1.759596 2.35067,-2.216193 1.21538,-0.473355 2.79064,0.552785 l 4.2733,2.783678 q 0.68708,0.447572 1.08037,0.393463 0.39328,-0.05411 0.76444,-0.623883 l 0.0437,-0.06703 0.88818,0.578569 -2.03045,3.116999 -1.38555,-0.401311 -0.0982,0.150822 q 0.2123,0.66342 0.29562,1.195076 0.0775,0.503982 -0.0614,1.010264 -0.12209,0.517199 -0.53691,1.154006 z m -0.62294,-1.71859 q 0.46941,-0.720596 0.15579,-1.521621 -0.30271,-0.817783 -1.27468,-1.450933 l -1.25685,-0.818729 -0.44097,0.786862 q -0.6047,1.038232 -0.3698,1.740243 0.21815,0.691094 1.12309,1.280579 1.44119,0.938809 2.06342,-0.0164 z m 5.18276,-5.431725 -0.84531,-0.63958 0.14481,-0.19139 q 0.18102,-0.239236 0.3103,-0.542692 0.12541,-0.331473 0.0349,-0.675859 -0.0785,-0.360335 -0.52505,-0.698227 l -8.42113,-6.371673 q -0.43062,-0.325824 -0.78277,-0.291313 -0.35215,0.03451 -0.6211,0.257375 -0.25687,0.206916 -0.42582,0.430203 l -0.14481,0.19139 -0.8453,-0.639581 2.83587,-3.74804 10.23933,7.747375 q 0.44657,0.337892 0.8026,0.331398 0.3681,-0.02244 0.653,-0.23324 0.26894,-0.222865 0.43789,-0.446152 l 0.14481,-0.19139 0.8453,0.639581 z m 8.26805,-10.018002 q -1.58091,1.805743 -3.52824,1.935019 -1.96238,0.116102 -4.08413,-1.741473 -2.12175,-1.857576 -2.29054,-3.75976 -0.1688,-1.902185 1.53068,-3.843359 1.58091,-1.805743 3.52824,-1.935019 1.94733,-0.129276 4.06908,1.728299 2.12175,1.857575 2.29242,3.787982 0.1688,1.902185 -1.51751,3.828311 z m -0.92167,-0.860077 q 0.76411,-0.872775 0.23949,-1.943462 -0.53967,-1.083861 -2.13475,-2.480336 -1.61012,-1.409649 -2.73888,-1.759912 -1.1156,-0.365311 -1.87971,0.507465 -0.7641,0.872775 -0.25453,1.930288 0.50958,1.057512 2.1197,2.467161 1.59507,1.396475 2.74076,1.788135 1.14381,0.363437 1.90792,-0.509339 z m 5.27833,-4.230612 -0.74571,-0.753338 0.17057,-0.16884 q 0.21321,-0.21105 0.38435,-0.493025 0.17129,-0.310259 0.13066,-0.664024 -0.0264,-0.367835 -0.42037,-0.765825 l -7.42895,-7.504953 q -0.37989,-0.383776 -0.73337,-0.399717 -0.35347,-0.01594 -0.65139,0.166392 -0.2837,0.168264 -0.4827,0.365244 l -0.17056,0.16884 -0.74571,-0.753338 3.34027,-3.306445 9.03293,9.125341 q 0.39396,0.39799 0.74729,0.442215 0.36754,0.03016 0.67953,-0.137965 0.29792,-0.182334 0.49691,-0.379313 l 0.17057,-0.16884 0.74571,0.753338 z m 5.16257,-5.077755 -0.70518,-0.791407 0.17919,-0.159663 q 0.22398,-0.199578 0.40968,-0.47219 0.18732,-0.30085 0.1653,-0.656259 -0.007,-0.368714 -0.37963,-0.786815 l -7.02516,-7.884208 q -0.35924,-0.403169 -0.7114,-0.437625 -0.35215,-0.03446 -0.65922,0.132004 -0.29214,0.153155 -0.50119,0.339428 l -0.17918,0.159663 -0.70518,-0.791408 3.50907,-3.126728 8.54195,9.586479 q 0.37255,0.418102 0.72308,0.480795 0.36546,0.04939 0.68583,-0.102139 0.30707,-0.16646 0.51612,-0.352734 l 0.17919,-0.159662 0.70517,0.791407 z m -0.002,-16.497117 q -0.56194,0.450139 -1.16474,0.497376 -0.59969,0.01912 -1.06234,-0.558424 -0.47514,-0.593158 -0.31308,-1.15861 0.17767,-0.577957 0.73961,-1.028096 0.54632,-0.437635 1.14912,-0.484871 0.61841,-0.05974 1.09356,0.533416 0.46264,0.577548 0.28187,1.183618 -0.17767,0.577956 -0.724,1.015591 z m 5.42357,11.697081 -0.6627,-0.827298 0.18731,-0.150047 q 0.23414,-0.187558 0.43387,-0.450057 0.20285,-0.290613 0.19949,-0.646687 0.0123,-0.368578 -0.33784,-0.805641 l -3.80118,-4.745258 q -0.3376,-0.421454 -0.68747,-0.47433 -0.34986,-0.05288 -0.66523,0.09725 -0.29977,0.137624 -0.5183,0.312678 l -0.18731,0.150047 -0.66271,-0.827299 3.66821,-2.938407 5.22661,6.52473 q 0.35011,0.437063 0.69687,0.518052 0.36237,0.06849 0.69025,-0.06603 0.31537,-0.150128 0.5339,-0.325182 l 0.18732,-0.150047 0.6627,0.827299 z m 5.61173,-4.586661 -0.60056,-0.873457 0.19776,-0.135976 q 0.24721,-0.16997 0.46557,-0.417193 0.22351,-0.275034 0.24615,-0.630403 0.0391,-0.366701 -0.27815,-0.82815 L 166.901,37.684982 q -0.30595,-0.444969 -0.65102,-0.523237 -0.34507,-0.07827 -0.67056,0.04844 -0.30901,0.11538 -0.53973,0.274019 l -0.19777,0.135976 -0.60056,-0.873457 3.87287,-2.662865 4.3739,6.361401 q 0.20397,0.296645 0.47077,0.719984 0.25547,0.406859 0.43781,0.742648 0.18748,0.307977 0.18748,0.307977 l 0.4788,-3.751473 q 0.0649,-0.505759 0.0226,-0.743699 -0.0422,-0.23794 -0.12157,-0.353303 -0.30594,-0.444968 -1.16292,0.144262 l -0.56657,-0.824016 4.15304,-2.855498 0.56657,0.824016 q -0.56033,0.385265 -0.8827,1.116617 -0.33371,0.714872 -0.47786,1.881928 l -0.2224,1.900457 4.43548,1.756034 q 0.88175,0.364597 1.54201,0.371777 0.66026,0.0072 1.05579,-0.264772 l 0.0494,-0.03399 0.60056,0.873456 -0.23072,0.158639 q -0.90642,0.623224 -1.55533,1.020854 -0.64377,0.369819 -1.16291,0.532591 -0.53047,0.146292 -1.06404,0.07627 -0.51709,-0.08135 -1.19797,-0.365613 l -3.05313,-1.298754 -0.31927,0.947663 0.91784,1.334905 q 0.31727,0.461449 0.65719,0.567529 0.35641,0.09475 0.69323,-0.01548 0.32549,-0.126712 0.55621,-0.285351 l 0.19777,-0.135976 0.60056,0.873457 z m 15.40465,-9.982132 -0.49528,-0.937176 0.38902,-0.205587 q 0.26524,-0.140174 0.51078,-0.360422 0.25388,-0.247276 0.31756,-0.597626 0.0814,-0.359694 -0.1803,-0.854806 l -3.27071,-6.188897 -1.57375,0.831695 -0.63545,-1.202414 1.57375,-0.831695 -0.34576,-0.654255 q -0.86908,-1.644479 -0.47922,-3.004189 0.38051,-1.377393 2.25486,-2.367951 1.14937,-0.607418 1.87939,-0.767008 0.72067,-0.177273 1.14478,-0.01684 0.41475,0.142747 0.611,0.514081 0.60741,1.149367 -1.56754,2.298788 -0.14952,-0.282921 -0.41549,-0.572165 -0.26596,-0.289244 -0.58195,-0.416324 -0.30766,-0.154107 -0.64363,0.02345 -0.44206,0.233623 -0.37491,0.831528 0.0755,0.570878 0.69225,1.737927 l 0.51397,0.972541 2.44019,-1.289595 0.63545,1.202415 -2.44019,1.289595 3.27071,6.188897 q 0.26166,0.495111 0.58699,0.639873 0.34302,0.135418 0.69035,0.06497 0.33798,-0.08813 0.58554,-0.218961 l 0.83108,-0.43921 0.49528,0.937176 z m 12.68448,-6.037525 q -2.19892,0.961627 -4.01624,0.250181 -1.82533,-0.729771 -2.95525,-3.313508 -1.12991,-2.583737 -0.47343,-4.377014 0.65647,-1.793278 3.02031,-2.827027 2.19893,-0.961627 4.01625,-0.250181 1.81732,0.711446 2.94723,3.295184 1.12991,2.583737 0.46313,4.403352 -0.65648,1.793277 -3.002,2.819013 z m -0.4682,-1.170463 q 1.06281,-0.464786 1.04352,-1.656939 -0.0273,-1.210477 -0.87673,-3.152861 -0.85745,-1.960709 -1.72997,-2.7579 -0.85419,-0.805204 -1.91701,-0.340418 -1.06281,0.464787 -1.05154,1.638615 0.0113,1.173829 0.86872,3.134537 0.84944,1.942384 1.71966,2.784237 0.88053,0.815516 1.94335,0.350729 z m 7.53809,1.885642 q 1.32632,-0.448197 1.98125,-1.133957 0.67388,-0.692164 0.89145,-1.61013 0.21757,-0.917967 0.18138,-2.024624 l -6.22777,-7.18435 q -0.37489,-0.422202 -0.72287,-0.452389 -0.35438,-0.04913 -0.75868,0.06638 l -0.0758,0.02561 -0.37776,-1.117897 5.40001,-1.824801 0.33934,1.004212 -0.0568,0.01921 q -0.53052,0.179278 -0.78246,0.433303 -0.25194,0.254024 -0.11748,0.651919 0.0512,0.151579 0.1849,0.35974 0.14622,0.18281 0.25429,0.315181 l 2.47908,3.02558 q 0.50857,0.630362 0.77592,1.046683 0.26736,0.41632 0.43331,0.782463 -0.0966,-0.410701 -0.11146,-0.954556 0.004,-0.550258 0.0161,-0.702098 l -0.004,-4.136276 q 0.0118,-0.215085 -0.0274,-0.518505 -0.0392,-0.303419 -0.0968,-0.473946 -0.14086,-0.416843 -0.53314,-0.453171 -0.39868,-0.05528 -1.03035,0.137069 l -0.0758,0.02561 -0.33935,-1.004212 4.26316,-1.440633 0.33935,1.004213 -0.0758,0.02561 q -0.52412,0.198226 -0.74378,0.610232 -0.20712,0.386656 -0.22882,1.259542 l -0.2359,8.735259 q -0.0252,1.549633 -0.18544,2.574881 -0.13485,1.037793 -0.55575,1.728912 -0.41449,0.710067 -1.25994,1.206876 -0.8201,0.509354 -2.22221,0.983162 l -0.3221,0.108848 z m 14.39406,-8.042843 q -1.90593,0.457213 -3.2446,-0.579103 -1.34334,-1.055763 -2.01517,-3.856309 -0.67649,-2.819993 0.0176,-4.385076 0.71351,-1.569747 2.59999,-2.022294 1.0891,-0.261265 1.89654,0.01809 0.80278,0.259906 1.37448,0.84262 l 0.13614,-0.03266 q -0.20843,-0.525889 -0.41061,-1.197246 -0.20219,-0.671358 -0.31416,-1.138115 l -0.2566,-1.069653 q -0.19128,-0.797378 -0.70469,-0.879889 -0.51808,-0.101961 -1.15987,0.052 l -0.15559,0.03732 -0.24727,-1.030756 4.68703,-1.1243696 2.97188,12.3885236 q 0.13996,0.583447 0.42387,0.823851 0.30336,0.235738 0.69621,0.244336 0.39284,0.0086 0.8207,-0.09404 l 0.0778,-0.01866 0.24727,1.030756 -3.77295,0.905094 -0.90846,-1.38633 -0.17503,0.04199 q -0.24125,0.880569 -0.84886,1.519947 -0.58817,0.634714 -1.73561,0.909974 z m 0.48636,-1.659231 q 1.14745,-0.27526 1.34204,-1.350312 0.18992,-1.094499 -0.29062,-3.097667 -0.46187,-1.925375 -1.137,-2.853492 -0.67513,-0.928116 -1.82258,-0.652856 -0.97241,0.233272 -1.153,1.366668 -0.16115,1.12873 0.3054,3.073553 0.47587,1.98372 1.12222,2.877606 0.66113,0.869772 1.63354,0.6365 z m 11.46349,-0.793607 q -1.30642,0.188841 -2.33141,-0.471313 -1.00519,-0.663015 -1.24267,-2.30594 -0.23176,-1.603336 0.76513,-2.535542 0.99689,-0.932206 3.20241,-1.331842 l 1.61454,-0.294004 -0.15737,-1.088685 q -0.14306,-0.989714 -0.45235,-1.591657 -0.28951,-0.604805 -1.10107,-0.487494 -0.75218,0.108727 -0.9604,0.765268 -0.19128,0.633886 -0.0568,1.564217 -1.32622,0.191703 -2.04214,-0.0079 -0.71593,-0.199632 -0.82179,-0.93202 -0.10587,-0.732389 0.38542,-1.247977 0.49129,-0.515589 1.39301,-0.84801 0.89886,-0.352215 2.00734,-0.512445 2.0784,-0.30043 3.21643,0.302969 1.15782,0.600536 1.42678,2.461198 l 0.72961,5.04754 q 0.11731,0.811566 0.41756,1.071284 0.30024,0.259718 0.97325,0.162436 l 0.0792,-0.01144 0.15164,1.049096 -3.68173,0.53219 -0.61311,-1.305719 -0.17815,0.02575 q -0.35822,0.597392 -0.7026,1.010914 -0.32745,0.390866 -0.79942,0.620751 -0.4691,0.24968 -1.22129,0.358407 z m 0.87982,-1.60235 q 0.85115,-0.123034 1.24587,-0.887364 0.4145,-0.767192 0.24855,-1.91526 l -0.21459,-1.484571 -0.88216,0.188139 q -1.17907,0.231057 -1.55137,0.8709 -0.37515,0.620048 -0.22064,1.688939 0.24606,1.702307 1.37434,1.539217 z m 12.15934,0.166777 q -1.95738,0.101225 -3.08414,-1.16227 -1.12779,-1.283467 -1.27652,-4.159624 -0.14978,-2.89613 0.8186,-4.308026 0.98835,-1.412929 2.92576,-1.513121 1.1185,-0.05784 1.8613,0.364359 0.74176,0.402228 1.19735,1.079603 l 0.13982,-0.0072 q -0.10882,-0.555121 -0.18492,-1.252121 -0.0761,-0.697 -0.10088,-1.1763596 l -0.0568,-1.098532 q -0.0423,-0.8189057 -0.53204,-0.9938491 -0.49072,-0.1949167 -1.14984,-0.1608309 l -0.15979,0.00826 -0.0547,-1.0585854 4.81357,-0.2489299 0.65795,12.7229987 q 0.031,0.599199 0.26619,0.887437 0.25518,0.287205 0.63983,0.367446 0.38466,0.08024 0.82407,0.05752 l 0.0799,-0.0041 0.0547,1.058585 -3.87482,0.200384 -0.63982,-1.528997 -0.17976,0.0093 q -0.3981,0.821656 -1.11232,1.339233 -0.69425,0.516544 -1.87268,0.577485 z m 0.78139,-1.542413 q 1.17842,-0.06094 1.56619,-1.08233 0.38674,-1.041363 0.28035,-3.098614 -0.10226,-1.977358 -0.59642,-3.013219 -0.49415,-1.035862 -1.67258,-0.974921 -0.99866,0.05165 -1.38333,1.132955 -0.3647,1.080276 -0.26141,3.077607 0.10536,2.037278 0.57748,3.034226 0.49105,0.975941 1.48972,0.924296 z m 11.41549,1.314594 q -1.31893,-0.05307 -2.20602,-0.889417 -0.8671,-0.83554 -0.80036,-2.494198 0.0651,-1.61869 1.21559,-2.353027 1.15046,-0.734337 3.39186,-0.724208 l 1.64109,0.006 0.0442,-1.099111 q 0.0402,-0.999191 -0.15389,-1.647519 -0.1741,-0.647524 -0.99344,-0.680494 -0.75938,-0.03056 -1.08407,0.576879 -0.3039,0.588257 -0.34169,1.527496 -1.33892,-0.05388 -2.00631,-0.380976 -0.66738,-0.327098 -0.63763,-1.0665 0.0297,-0.739401 0.60699,-1.15653 0.57724,-0.417128 1.52452,-0.579171 0.94809,-0.182027 2.06718,-0.136995 2.0983,0.08443 3.1069,0.885637 1.02859,0.802005 0.953,2.680485 l -0.20506,5.095875 q -0.033,0.819337 0.21476,1.129549 0.24773,0.310211 0.92718,0.337552 l 0.0799,0.0032 -0.0426,1.059142 -3.71699,-0.149571 -0.36417,-1.395771 -0.17986,-0.0072 q -0.46135,0.521872 -0.87551,0.865498 -0.39336,0.324446 -0.89939,0.464213 -0.50683,0.159751 -1.26622,0.129193 z m 1.15782,-1.414591 q 0.8593,0.03458 1.38704,-0.644752 0.54773,-0.678526 0.59437,-1.837588 l 0.0603,-1.498787 -0.90169,0.02376 q -1.20144,0.0117 -1.68439,0.572738 -0.48214,0.541052 -0.52556,1.620178 -0.0692,1.718609 1.06992,1.764446 z m 7.39161,1.573807 0.14099,-1.050581 0.0396,0.0053 q 0.67396,0.09045 1.14197,-0.08889 0.46801,-0.179341 0.58773,-1.071344 l 0.78744,-5.867396 q 0.11173,-0.832536 -0.25546,-1.103787 -0.3447,-0.288412 -0.99883,-0.376201 l -0.0595,-0.008 0.141,-1.050581 4.16268,0.558657 0.0688,1.441966 0.0991,0.0133 q 0.49753,-0.700042 0.99867,-0.975834 0.52362,-0.292955 1.07212,-0.320239 0.57099,-0.04445 1.18548,0.03802 1.52632,0.204841 2.27612,1.233718 0.74981,1.028877 0.48112,3.030928 l -0.61718,4.59877 q -0.12237,0.911825 0.1602,1.212079 0.30506,0.283092 0.97902,0.373541 l 0.0595,0.008 -0.14099,1.050581 -4.40055,-0.59058 0.87523,-6.521532 q 0.17292,-1.288448 -0.0908,-2.030113 -0.2637,-0.741665 -1.13588,-0.858717 -0.65413,-0.08779 -1.08928,0.297757 -0.43249,0.365722 -0.68684,1.058043 -0.25169,0.672497 -0.36076,1.485211 l -0.50811,3.786056 q -0.11173,0.832536 0.23297,1.120949 0.36718,0.27125 1.02132,0.359039 l 0.0595,0.008 -0.141,1.050581 z m 23.24644,4.420643 q -1.5032,-0.417092 -2.05595,-1.56673 -0.5474,-1.168911 -0.007,-3.115373 l 1.1978,-4.316906 q 0.23528,-0.847963 -0.004,-1.184055 -0.23348,-0.355364 -0.92727,-0.547867 l -0.0385,-0.0107 0.28341,-1.021411 4.27836,1.187106 -1.71114,6.167008 q -0.34223,1.233402 -0.24242,2.070563 0.10515,0.817889 0.95311,1.053171 0.92505,0.256672 1.549,-0.421182 0.64322,-0.672507 1.01754,-2.02154 l 1.02668,-3.700205 q 0.23529,-0.847964 -0.13522,-1.158324 -0.35124,-0.305012 -0.91012,-0.460085 l -0.0578,-0.01604 0.28341,-1.02141 4.37472,1.213842 -2.24588,8.094198 q -0.22993,0.828692 0.0828,1.12301 0.31269,0.294318 0.87158,0.44939 l 0.15417,0.04278 -0.2834,1.021411 -3.83511,-1.064118 -0.0443,-1.485946 -0.0964,-0.02674 q -0.85622,0.841719 -1.72658,0.911557 -0.84574,0.05591 -1.75152,-0.19541 z m 12.37027,3.927483 q -2.04345,-0.759393 -2.67592,-1.698533 -0.62551,-0.957887 -0.27716,-1.895253 0.22991,-0.618662 0.64134,-0.807148 0.41142,-0.188487 0.8587,-0.128951 0.45424,0.04079 0.77295,0.159225 -0.43195,1.162334 -0.13909,2.039279 0.31161,0.883911 1.23023,1.225289 0.97486,0.36228 1.54539,0.147572 0.58927,-0.20774 0.78435,-0.732665 0.2299,-0.618662 -0.11122,-1.193496 -0.34113,-0.574833 -1.49801,-1.538167 -1.32346,-1.089245 -1.86485,-2.10122 -0.53443,-1.030723 -0.0676,-2.286794 0.55736,-1.499786 1.93516,-1.819884 1.38477,-0.338845 3.20326,0.336946 1.18108,0.438915 1.79594,0.966121 0.64058,0.515424 0.80601,1.046303 0.19114,0.519098 0.0309,0.950287 -0.23688,0.637409 -0.81222,0.807655 -0.54963,0.158465 -1.58073,-0.224715 0.34835,-0.937366 0.12401,-1.596816 -0.21736,-0.678197 -1.04225,-0.984741 -0.59991,-0.222942 -1.18007,-0.09716 -0.55443,0.114004 -0.77041,0.695171 -0.1463,0.393694 -0.0515,0.770287 0.11349,0.38356 0.57141,0.873777 0.45792,0.490217 1.3379,1.22263 1.09583,0.897971 1.61848,1.90298 0.54835,0.993228 0.10944,2.174309 -0.57825,1.556028 -1.9743,2.040039 -1.37032,0.472229 -3.32005,-0.25233 z m 9.4174,3.878467 q -1.22246,-0.548805 -1.6656,-1.515049 -0.44314,-0.966244 0.27768,-2.571866 l 2.62116,-5.838625 -1.36843,-0.614333 0.41775,-0.930531 q 0.58386,0.262115 1.14649,0.229699 0.58087,-0.02423 0.98561,-0.19329 0.83592,-0.348184 1.65022,-1.429534 l 1.5144,0.679862 -1.0157,2.262468 2.33545,1.048462 -0.557,1.240708 -2.33545,-1.048463 -2.53924,5.656169 q -0.3686,0.821056 -0.26693,1.327083 0.11992,0.514217 0.75852,0.800906 0.36491,0.163822 0.69147,0.26658 0.353,0.0927 0.67769,0.150778 l -0.53242,1.185971 q -0.34927,-0.0033 -1.09808,-0.142198 -0.73056,-0.130669 -1.69759,-0.564797 z m 7.69767,3.797582 q -1.36821,-0.749408 -1.64376,-1.994908 -0.26594,-1.263041 0.70445,-3.034693 l 2.15214,-3.929207 q 0.42274,-0.771808 0.26699,-1.153567 -0.14615,-0.3993 -0.77763,-0.745181 l -0.0351,-0.01922 0.50921,-0.929678 3.89413,2.132931 -3.0745,5.613152 q -0.6149,1.122631 -0.70894,1.960459 -0.0844,0.820286 0.68737,1.243029 0.84197,0.461174 1.60425,-0.05625 0.77983,-0.507814 1.45237,-1.735691 l 1.8447,-3.367892 q 0.42274,-0.771808 0.13291,-1.158591 -0.27228,-0.377174 -0.78097,-0.6558 l -0.0526,-0.02882 0.50922,-0.929678 3.98183,2.180969 -4.03528,7.367263 q -0.41313,0.754268 -0.17593,1.112227 0.2372,0.357959 0.7459,0.636585 l 0.14032,0.07686 -0.50921,0.929679 -3.49068,-1.911951 0.29625,-1.45679 -0.0877,-0.04804 q -1.02584,0.623903 -1.88914,0.4931 -0.83616,-0.138736 -1.66059,-0.590303 z m 7.78052,4.090057 0.59783,-0.875324 0.033,0.02256 q 0.56153,0.383518 1.06023,0.43349 0.4987,0.04997 1.0063,-0.693228 l 3.33886,-4.888602 q 0.47375,-0.693653 0.26752,-1.100922 -0.17843,-0.412505 -0.72345,-0.784743 l -0.0495,-0.03384 0.59783,-0.875324 3.46827,2.368785 -0.58617,1.319243 0.0826,0.0564 q 0.75895,-0.401992 1.33057,-0.423318 0.59941,-0.02656 1.10173,0.195419 0.53011,0.216744 1.0421,0.566422 1.27169,0.868554 1.4795,2.124586 0.20781,1.256032 -0.93147,2.924102 l -2.61694,3.831607 q -0.51887,0.759715 -0.40127,1.154896 0.14541,0.389945 0.70694,0.773463 l 0.0496,0.03384 -0.59784,0.875323 -3.66645,-2.504143 3.71109,-5.433615 q 0.7332,-1.07351 0.83072,-1.854593 0.0975,-0.781083 -0.62917,-1.2774 -0.54501,-0.372237 -1.10697,-0.223214 -0.55067,0.132508 -1.08887,0.636828 -0.52692,0.487805 -0.9894,1.164942 l -2.15447,3.15447 q -0.47375,0.693653 -0.29532,1.106158 0.20623,0.407269 0.75125,0.779507 l 0.0495,0.03384 -0.59783,0.875324 z m 18.55839,14.198711 q -1.00964,-0.881035 -1.15217,-1.934451 -0.14253,-1.053416 1.01465,-2.379513 l 4.20793,-4.822172 -1.1302,-0.986233 0.67064,-0.768534 q 0.48222,0.420793 1.0299,0.553637 0.56275,0.145993 0.99918,0.102131 0.90109,-0.08964 1.99502,-0.886969 l 1.25075,1.091431 -1.63057,1.868592 1.92886,1.683171 -0.89418,1.024712 -1.92887,-1.683172 -4.07643,4.671479 q -0.59174,0.678118 -0.64185,1.191819 -0.035,0.526852 0.49239,0.987094 0.30139,0.262995 0.58386,0.456403 0.3107,0.191488 0.60441,0.341607 l -0.85474,0.979504 q -0.33315,-0.104911 -1.00906,-0.45583 -0.66085,-0.337768 -1.45952,-1.034706 z m 6.25801,5.874781 q -1.09065,-1.115389 -0.99153,-2.387149 0.11342,-1.285743 1.55771,-2.69799 l 3.20317,-3.132112 q 0.62919,-0.615236 0.59137,-1.025808 -0.0235,-0.424554 -0.5269,-0.939349 l -0.028,-0.0286 0.75789,-0.74108 3.10415,3.174567 -4.57595,4.474445 q -0.91519,0.894889 -1.24917,1.66901 -0.31967,0.760138 0.29557,1.389332 0.67117,0.686392 1.55109,0.413401 0.89392,-0.258692 1.89491,-1.237477 l 2.74557,-2.684667 q 0.62919,-0.615236 0.46457,-1.069659 -0.15064,-0.440123 -0.55613,-0.854819 l -0.042,-0.0429 0.75789,-0.74108 3.17406,3.246067 -6.00594,5.872709 q -0.61489,0.601254 -0.49222,1.012777 0.12267,0.411524 0.52817,0.826219 l 0.11186,0.114399 -0.75789,0.74108 -2.78255,-2.84567 0.70768,-1.307364 -0.0699,-0.0715 q -1.16307,0.298102 -1.95086,-0.07845 -0.7595,-0.376237 -1.41668,-1.04833 z m 6.20181,6.219494 0.8189,-0.673051 0.0381,0.04635 q 0.43177,0.525334 0.88386,0.697416 0.48024,0.174834 1.20644,-0.422022 l 4.48079,-3.682733 q 0.67984,-0.558759 0.61128,-1.020168 -0.0559,-0.445958 -0.47494,-0.955841 l -0.0381,-0.04635 0.8189,-0.673051 2.56521,3.121102 -0.95119,1.299548 0.0635,0.07725 q 0.94928,-0.262438 1.67017,-0.07829 0.73635,0.171451 1.51099,1.113962 1.4604,1.776866 0.20887,2.805491 -0.71075,0.584157 -1.54424,0.388999 -0.80535,-0.192406 -1.56729,-1.119466 0.63349,-0.520662 0.83097,-0.941853 0.19748,-0.42119 -0.1708,-0.869269 -0.33017,-0.401726 -0.81147,-0.420359 -0.48131,-0.01863 -1.00008,0.200634 -0.50332,0.206568 -0.95859,0.50309 -0.45527,0.296523 -0.71794,0.512407 l -2.67302,2.19694 q -0.67985,0.55876 -0.61128,1.020169 0.084,0.448709 0.46499,0.912239 l 0.40637,0.494432 -0.8189,0.673052 z m 8.42811,11.036997 q -0.75255,-1.084468 -0.6198,-2.2964 0.14415,-1.1955 1.50795,-2.141886 1.33094,-0.923582 2.61029,-0.448115 1.27935,0.475467 2.62213,2.270168 l 0.98427,1.313162 0.90373,-0.627123 q 0.82156,-0.570113 1.22194,-1.115729 0.41178,-0.529186 -0.0557,-1.20287 -0.43329,-0.624391 -1.11369,-0.517391 -0.65257,0.112028 -1.42484,0.647934 -0.76396,-1.100899 -0.90516,-1.830598 -0.14121,-0.7297 0.46675,-1.151583 0.60796,-0.421883 1.28871,-0.212655 0.68076,0.209228 1.38097,0.867478 0.71665,0.646848 1.35518,1.567003 1.19724,1.72529 1.16576,3.013005 -0.0201,1.304146 -1.56461,2.375957 l -4.18999,2.907573 q -0.67369,0.467492 -0.77193,0.852134 -0.0982,0.384641 0.28944,0.943306 l 0.0456,0.06573 -0.87086,0.604319 -2.12081,-3.056228 0.89431,-1.131813 -0.10262,-0.147882 q -0.6945,-0.05363 -1.2183,-0.177015 -0.49598,-0.118357 -0.91249,-0.437922 -0.43293,-0.308163 -0.86622,-0.932554 z m 1.82661,0.07136 q 0.4903,0.706548 1.35045,0.718252 0.87156,0.02814 1.82457,-0.633194 l 1.23235,-0.855169 -0.56239,-0.705203 q -0.73343,-0.951673 -1.47219,-0.998929 -0.72233,-0.05866 -1.60962,0.557064 -1.4131,0.980593 -0.76317,1.917179 z m 5.28249,10.953204 q -0.96495,-1.706009 -0.33787,-3.278513 0.64449,-1.58235 3.15128,-3.000239 2.5242,-1.427736 4.21997,-1.192066 1.70563,0.253079 2.66073,1.94168 0.55141,0.974862 0.50549,1.828028 -0.0285,0.843319 -0.43102,1.553518 l 0.0689,0.121858 q 0.44805,-0.345334 1.03764,-0.724776 0.5896,-0.379443 1.0074,-0.615758 l 0.95745,-0.541555 q 0.71374,-0.403704 0.65151,-0.919967 -0.0448,-0.526109 -0.36976,-1.100581 l -0.0788,-0.139266 0.92263,-0.521863 2.373,4.19539 -11.08906,6.272191 q -0.52225,0.295394 -0.67506,0.634582 -0.14296,0.356595 -0.0429,0.736585 0.10004,0.379989 0.31666,0.76297 l 0.0394,0.06963 -0.92264,0.521862 -1.91021,-3.377201 1.08214,-1.255455 -0.0886,-0.156674 q -0.91295,0.01088 -1.69507,-0.396914 -0.77227,-0.390382 -1.35321,-1.417469 z m 1.72902,0.01007 q 0.58094,1.027087 1.66797,0.917746 1.10445,-0.119188 2.8975,-1.133373 1.72341,-0.974799 2.42943,-1.879642 0.70601,-0.904844 0.12507,-1.931931 -0.49232,-0.870413 -1.63158,-0.731532 -1.12941,0.156288 -2.87024,1.140934 -1.77564,1.004338 -2.45668,1.872081 -0.6538,0.875304 -0.16147,1.745717 z m 15.15289,4.821381 q -0.30718,-0.651186 -0.21299,-1.248453 0.12081,-0.587712 0.79008,-0.903422 0.68736,-0.324243 1.19965,-0.03518 0.52083,0.307156 0.828,0.958341 0.29865,0.633097 0.20446,1.230365 -0.0857,0.615356 -0.77302,0.939599 -0.66927,0.315709 -1.21671,-0.001 -0.52082,-0.307157 -0.81947,-0.940253 z m -12.63742,2.555843 0.95869,-0.452233 0.10239,0.217062 q 0.12799,0.271327 0.33687,0.526612 0.2355,0.26484 0.58259,0.344356 0.35564,0.0976 0.86211,-0.141312 l 5.4989,-2.59394 q 0.48839,-0.230383 0.62115,-0.55837 0.13276,-0.327986 0.06,-0.669621 -0.0642,-0.323547 -0.18362,-0.576785 l -0.1024,-0.217062 0.95869,-0.452233 2.00519,4.250792 -7.56099,3.566671 q -0.50647,0.23891 -0.66585,0.55734 -0.15085,0.33652 -0.0962,0.68669 0.0727,0.34164 0.19216,0.59487 l 0.1024,0.21707 -0.95869,0.45223 z"
       id="text9"
       aria-label="Halollik foydadan ustun turadi" />
    <!-- palm tree silhouette -->
    <g
       id="palm"
       fill="none"
       stroke="#5c2a1e"
       stroke-linecap="round"
       stroke-linejoin="round">
      <path
         d="M252 279 C248 247 253 221 260 190 C265 167 262 151 256 134"
         stroke-width="21"
         id="path9" />
      <path
         d="M244 279 C256 258 269 238 287 219"
         stroke-width="17"
         id="path10" />
      <path
         d="M269 278 C258 250 251 223 245 195"
         stroke-width="13"
         id="path11" />
      <path
         d="M258 139 C240 116 212 97 176 88"
         stroke-width="11"
         id="path12" />
      <path
         d="M259 139 C254 107 241 83 222 66"
         stroke-width="11"
         id="path13" />
      <path
         d="M259 139 C270 108 291 84 320 72"
         stroke-width="11"
         id="path14" />
      <path
         d="M260 141 C292 114 329 101 369 103"
         stroke-width="11"
         id="path15" />
      <path
         d="M258 149 C218 138 181 138 145 153"
         stroke-width="12"
         id="path16" />
      <path
         d="M260 150 C300 137 340 139 381 160"
         stroke-width="12"
         id="path17" />
      <path
         d="M258 156 C214 164 182 187 161 218"
         stroke-width="12"
         id="path18" />
      <path
         d="M260 157 C308 164 342 188 368 222"
         stroke-width="12"
         id="path19" />
      <path
         d="M257 164 C226 190 207 219 197 255"
         stroke-width="11"
         id="path20" />
      <path
         d="M263 164 C296 191 315 220 326 255"
         stroke-width="11"
         id="path21" />
      <!-- small leaf strokes for the palm texture -->
      <path
         d="M220 108 L199 113 M230 115 L207 126 M242 125 L217 139 M203 101 L184 102 M190 96 L173 94"
         stroke-width="5"
         id="path22" />
      <path
         d="M247 103 L229 91 M252 115 L232 104 M257 128 L236 119 M241 84 L227 75 M234 73 L221 65"
         stroke-width="5"
         id="path23" />
      <path
         d="M283 107 L294 89 M276 119 L293 103 M269 130 L288 117 M304 84 L319 72 M294 92 L310 81"
         stroke-width="5"
         id="path24" />
      <path
         d="M307 124 L332 113 M294 132 L323 127 M282 140 L313 142 M334 108 L358 104 M350 111 L374 114"
         stroke-width="5"
         id="path25" />
      <path
         d="M218 145 L193 137 M205 153 L178 151 M191 163 L164 168 M177 177 L154 188"
         stroke-width="5"
         id="path26" />
      <path
         d="M302 145 L329 138 M316 154 L346 154 M331 165 L359 171 M344 179 L368 190"
         stroke-width="5"
         id="path27" />
      <path
         d="M225 176 L201 183 M214 191 L190 205 M204 208 L181 227 M236 165 L210 168"
         stroke-width="5"
         id="path28" />
      <path
         d="M292 176 L318 184 M305 192 L330 207 M315 209 L340 230 M281 165 L309 169"
         stroke-width="5"
         id="path29" />
    </g>
    <!-- book/base under emblem -->
    <g
       id="base">
      <path
         d="M158 318 C200 299 231 295 256 307 C281 295 312 299 354 318 C319 318 288 318 256 326 C224 318 193 318 158 318 Z"
         fill="#fff7ee"
         stroke="#5b2a1e"
         stroke-width="5"
         id="path30" />
      <path
         d="M177 326 C211 321 237 324 256 334 C275 324 301 321 335 326"
         fill="none"
         stroke="#5b2a1e"
         stroke-width="4"
         stroke-linecap="round"
         id="path31" />
      <path
         d="M207 309 C225 306 243 309 256 315 C269 309 287 306 305 309"
         fill="none"
         stroke="#f2bf79"
         stroke-width="5"
         stroke-linecap="round"
         id="path32" />
    </g>
    <!-- ANSOR title with layered outline -->
    <g
       id="wordmark"
       text-anchor="middle"
       font-family="Georgia, 'Noto Serif', 'Times New Roman', serif"
       font-weight="900">
      <path
         d="m 64.826034,448 v -6.466 h 0.742 q 2.756,0 4.876,-1.378 2.226,-1.378 3.922,-5.936 l 22.578,-61.904 h 19.185996 l 21.624,62.116 q 1.378,3.71 3.498,5.406 2.226,1.696 5.194,1.696 h 1.166 V 448 h -39.22 v -6.466 h 4.24 q 1.696,0 3.074,-0.636 1.378,-0.636 1.378,-2.65 0,-1.484 -0.53,-2.968 -0.424,-1.59 -0.636,-2.226 l -3.286,-9.646 H 88.464034 l -2.438,7.632 q -0.318,1.272 -0.954,3.498 -0.53,2.12 -0.53,3.604 0,1.59 0.848,2.544 0.848,0.848 3.074,0.848 h 5.194 V 448 Z m 25.97,-31.906 h 19.503996 l -6.042,-20.246 q -0.742,-2.756 -1.696,-5.83 -0.848,-3.18 -1.484,-6.678 -0.848,3.392 -1.801996,6.572 -0.954,3.074 -1.802,5.83 z M 145.83805,448 v -6.466 h 3.498 q 2.862,0 4.558,-1.06 1.696,-1.06 1.696,-5.3 v -50.456 q 0,-3.922 -1.59,-4.876 -1.59,-1.06 -3.71,-1.06 h -4.452 v -6.466 h 26.606 l 36.994,48.654 v -36.252 q 0,-3.392 -1.484,-4.664 -1.484,-1.272 -3.604,-1.272 h -4.558 v -6.466 h 28.408 v 6.466 h -4.558 q -2.332,0 -3.816,1.484 -1.378,1.484 -1.378,4.876 V 448 h -11.342 l -42.506,-56.498 v 43.672 q 0,4.24 1.166,5.3 1.166,1.06 3.922,1.06 h 4.558 V 448 Z m 109.31397,1.06 q -8.586,0 -13.992,-1.484 -5.406,-1.484 -8.374,-3.816 -2.968,-2.332 -4.134,-4.876 -1.06,-2.544 -1.06,-4.558 0,-4.77 2.014,-7.314 2.12,-2.544 5.3,-3.498 3.18,-1.06 6.784,-1.06 0,7.208 2.332,11.448 2.438,4.24 6.042,6.148 3.71,1.802 7.42,1.802 5.618,0 8.586,-3.18 3.074,-3.286 3.074,-6.89 0,-5.088 -5.088,-8.162 -4.982,-3.18 -13.568,-6.678 -8.056,-3.286 -12.508,-6.996 -4.452,-3.71 -6.254,-7.95 -1.802,-4.24 -1.802,-8.904 0,-6.784 3.71,-11.66 3.816,-4.876 10.282,-7.526 6.466,-2.65 14.522,-2.65 8.586,0 13.992,2.014 5.512,2.014 8.056,5.088 2.544,2.968 2.544,6.254 0,3.922 -3.498,6.678 -3.392,2.756 -11.872,2.756 0,-3.604 -1.378,-7.102 -1.378,-3.604 -4.028,-5.936 -2.544,-2.438 -6.36,-2.438 -3.922,0 -6.678,1.908 -2.65,1.908 -2.65,6.148 0,2.12 1.378,4.346 1.378,2.226 5.406,4.876 4.134,2.544 11.978,5.724 8.056,3.18 12.508,6.89 4.558,3.604 6.36,7.844 1.802,4.134 1.802,9.222 0,6.89 -3.816,12.19 -3.71,5.3 -10.706,8.374 -6.89,2.968 -16.324,2.968 z m 73.59195,0 q -12.72,0 -21.094,-4.876 -8.374,-4.876 -12.614,-13.674 -4.134,-8.798 -4.134,-20.564 0,-11.766 4.134,-20.458 4.24,-8.692 12.614,-13.462 8.48,-4.876 21.2,-4.876 12.084,0 20.458,4.876 8.374,4.77 12.72,13.568 4.346,8.692 4.346,20.458 0,11.766 -4.346,20.564 -4.346,8.692 -12.826,13.568 -8.374,4.876 -20.458,4.876 z m 0,-7.738 q 8.48,0 11.872,-8.268 3.498,-8.268 3.498,-23.002 0,-14.84 -3.392,-23.002 -3.392,-8.162 -11.872,-8.162 -8.586,0 -12.19,8.162 -3.498,8.162 -3.498,23.002 0,14.734 3.498,23.002 3.604,8.268 12.084,8.268 z M 370.32395,448 v -6.466 h 4.028 q 2.014,0 3.816,-0.954 1.908,-0.954 1.908,-4.876 v -50.986 q 0,-2.65 -1.06,-3.816 -0.954,-1.272 -2.332,-1.696 -1.272,-0.424 -2.332,-0.424 h -4.028 v -6.466 h 38.266 q 11.872,0 18.868,2.544 6.996,2.438 9.964,6.996 3.074,4.452 3.074,10.494 0,6.042 -2.12,9.964 -2.014,3.922 -5.406,6.148 -3.392,2.226 -7.526,3.392 l 12.084,20.458 q 2.862,4.876 4.876,7.102 2.12,2.12 4.77,2.12 h 0.742 V 448 h -4.982 q -9.222,0 -15.582,-1.802 -6.36,-1.802 -9.328,-7.738 l -11.13,-22.896 h -5.618 v 20.14 q 0,3.922 1.378,4.876 1.484,0.954 3.816,0.954 h 2.544 V 448 Z m 35.722,-39.432 q 6.254,0 9.01,-3.71 2.862,-3.816 2.862,-11.236 0,-7.632 -3.074,-10.918 -3.074,-3.286 -9.01,-3.286 h -4.558 v 29.15 z"
         id="text32"
         style="font-size:106px;letter-spacing:-4;fill:none;stroke:#2a120b;stroke-width:14;stroke-linejoin:round"
         aria-label="ANSOR" />
      <path
         d="m 64.826034,448 v -6.466 h 0.742 q 2.756,0 4.876,-1.378 2.226,-1.378 3.922,-5.936 l 22.578,-61.904 h 19.185996 l 21.624,62.116 q 1.378,3.71 3.498,5.406 2.226,1.696 5.194,1.696 h 1.166 V 448 h -39.22 v -6.466 h 4.24 q 1.696,0 3.074,-0.636 1.378,-0.636 1.378,-2.65 0,-1.484 -0.53,-2.968 -0.424,-1.59 -0.636,-2.226 l -3.286,-9.646 H 88.464034 l -2.438,7.632 q -0.318,1.272 -0.954,3.498 -0.53,2.12 -0.53,3.604 0,1.59 0.848,2.544 0.848,0.848 3.074,0.848 h 5.194 V 448 Z m 25.97,-31.906 h 19.503996 l -6.042,-20.246 q -0.742,-2.756 -1.696,-5.83 -0.848,-3.18 -1.484,-6.678 -0.848,3.392 -1.801996,6.572 -0.954,3.074 -1.802,5.83 z M 145.83805,448 v -6.466 h 3.498 q 2.862,0 4.558,-1.06 1.696,-1.06 1.696,-5.3 v -50.456 q 0,-3.922 -1.59,-4.876 -1.59,-1.06 -3.71,-1.06 h -4.452 v -6.466 h 26.606 l 36.994,48.654 v -36.252 q 0,-3.392 -1.484,-4.664 -1.484,-1.272 -3.604,-1.272 h -4.558 v -6.466 h 28.408 v 6.466 h -4.558 q -2.332,0 -3.816,1.484 -1.378,1.484 -1.378,4.876 V 448 h -11.342 l -42.506,-56.498 v 43.672 q 0,4.24 1.166,5.3 1.166,1.06 3.922,1.06 h 4.558 V 448 Z m 109.31397,1.06 q -8.586,0 -13.992,-1.484 -5.406,-1.484 -8.374,-3.816 -2.968,-2.332 -4.134,-4.876 -1.06,-2.544 -1.06,-4.558 0,-4.77 2.014,-7.314 2.12,-2.544 5.3,-3.498 3.18,-1.06 6.784,-1.06 0,7.208 2.332,11.448 2.438,4.24 6.042,6.148 3.71,1.802 7.42,1.802 5.618,0 8.586,-3.18 3.074,-3.286 3.074,-6.89 0,-5.088 -5.088,-8.162 -4.982,-3.18 -13.568,-6.678 -8.056,-3.286 -12.508,-6.996 -4.452,-3.71 -6.254,-7.95 -1.802,-4.24 -1.802,-8.904 0,-6.784 3.71,-11.66 3.816,-4.876 10.282,-7.526 6.466,-2.65 14.522,-2.65 8.586,0 13.992,2.014 5.512,2.014 8.056,5.088 2.544,2.968 2.544,6.254 0,3.922 -3.498,6.678 -3.392,2.756 -11.872,2.756 0,-3.604 -1.378,-7.102 -1.378,-3.604 -4.028,-5.936 -2.544,-2.438 -6.36,-2.438 -3.922,0 -6.678,1.908 -2.65,1.908 -2.65,6.148 0,2.12 1.378,4.346 1.378,2.226 5.406,4.876 4.134,2.544 11.978,5.724 8.056,3.18 12.508,6.89 4.558,3.604 6.36,7.844 1.802,4.134 1.802,9.222 0,6.89 -3.816,12.19 -3.71,5.3 -10.706,8.374 -6.89,2.968 -16.324,2.968 z m 73.59195,0 q -12.72,0 -21.094,-4.876 -8.374,-4.876 -12.614,-13.674 -4.134,-8.798 -4.134,-20.564 0,-11.766 4.134,-20.458 4.24,-8.692 12.614,-13.462 8.48,-4.876 21.2,-4.876 12.084,0 20.458,4.876 8.374,4.77 12.72,13.568 4.346,8.692 4.346,20.458 0,11.766 -4.346,20.564 -4.346,8.692 -12.826,13.568 -8.374,4.876 -20.458,4.876 z m 0,-7.738 q 8.48,0 11.872,-8.268 3.498,-8.268 3.498,-23.002 0,-14.84 -3.392,-23.002 -3.392,-8.162 -11.872,-8.162 -8.586,0 -12.19,8.162 -3.498,8.162 -3.498,23.002 0,14.734 3.498,23.002 3.604,8.268 12.084,8.268 z M 370.32395,448 v -6.466 h 4.028 q 2.014,0 3.816,-0.954 1.908,-0.954 1.908,-4.876 v -50.986 q 0,-2.65 -1.06,-3.816 -0.954,-1.272 -2.332,-1.696 -1.272,-0.424 -2.332,-0.424 h -4.028 v -6.466 h 38.266 q 11.872,0 18.868,2.544 6.996,2.438 9.964,6.996 3.074,4.452 3.074,10.494 0,6.042 -2.12,9.964 -2.014,3.922 -5.406,6.148 -3.392,2.226 -7.526,3.392 l 12.084,20.458 q 2.862,4.876 4.876,7.102 2.12,2.12 4.77,2.12 h 0.742 V 448 h -4.982 q -9.222,0 -15.582,-1.802 -6.36,-1.802 -9.328,-7.738 l -11.13,-22.896 h -5.618 v 20.14 q 0,3.922 1.378,4.876 1.484,0.954 3.816,0.954 h 2.544 V 448 Z m 35.722,-39.432 q 6.254,0 9.01,-3.71 2.862,-3.816 2.862,-11.236 0,-7.632 -3.074,-10.918 -3.074,-3.286 -9.01,-3.286 h -4.558 v 29.15 z"
         id="text33"
         style="font-size:106px;letter-spacing:-4;fill:none;stroke:#fff7ee;stroke-width:9;stroke-linejoin:round"
         aria-label="ANSOR" />
      <path
         d="m 64.826034,448 v -6.466 h 0.742 q 2.756,0 4.876,-1.378 2.226,-1.378 3.922,-5.936 l 22.578,-61.904 h 19.185996 l 21.624,62.116 q 1.378,3.71 3.498,5.406 2.226,1.696 5.194,1.696 h 1.166 V 448 h -39.22 v -6.466 h 4.24 q 1.696,0 3.074,-0.636 1.378,-0.636 1.378,-2.65 0,-1.484 -0.53,-2.968 -0.424,-1.59 -0.636,-2.226 l -3.286,-9.646 H 88.464034 l -2.438,7.632 q -0.318,1.272 -0.954,3.498 -0.53,2.12 -0.53,3.604 0,1.59 0.848,2.544 0.848,0.848 3.074,0.848 h 5.194 V 448 Z m 25.97,-31.906 h 19.503996 l -6.042,-20.246 q -0.742,-2.756 -1.696,-5.83 -0.848,-3.18 -1.484,-6.678 -0.848,3.392 -1.801996,6.572 -0.954,3.074 -1.802,5.83 z M 145.83805,448 v -6.466 h 3.498 q 2.862,0 4.558,-1.06 1.696,-1.06 1.696,-5.3 v -50.456 q 0,-3.922 -1.59,-4.876 -1.59,-1.06 -3.71,-1.06 h -4.452 v -6.466 h 26.606 l 36.994,48.654 v -36.252 q 0,-3.392 -1.484,-4.664 -1.484,-1.272 -3.604,-1.272 h -4.558 v -6.466 h 28.408 v 6.466 h -4.558 q -2.332,0 -3.816,1.484 -1.378,1.484 -1.378,4.876 V 448 h -11.342 l -42.506,-56.498 v 43.672 q 0,4.24 1.166,5.3 1.166,1.06 3.922,1.06 h 4.558 V 448 Z m 109.31397,1.06 q -8.586,0 -13.992,-1.484 -5.406,-1.484 -8.374,-3.816 -2.968,-2.332 -4.134,-4.876 -1.06,-2.544 -1.06,-4.558 0,-4.77 2.014,-7.314 2.12,-2.544 5.3,-3.498 3.18,-1.06 6.784,-1.06 0,7.208 2.332,11.448 2.438,4.24 6.042,6.148 3.71,1.802 7.42,1.802 5.618,0 8.586,-3.18 3.074,-3.286 3.074,-6.89 0,-5.088 -5.088,-8.162 -4.982,-3.18 -13.568,-6.678 -8.056,-3.286 -12.508,-6.996 -4.452,-3.71 -6.254,-7.95 -1.802,-4.24 -1.802,-8.904 0,-6.784 3.71,-11.66 3.816,-4.876 10.282,-7.526 6.466,-2.65 14.522,-2.65 8.586,0 13.992,2.014 5.512,2.014 8.056,5.088 2.544,2.968 2.544,6.254 0,3.922 -3.498,6.678 -3.392,2.756 -11.872,2.756 0,-3.604 -1.378,-7.102 -1.378,-3.604 -4.028,-5.936 -2.544,-2.438 -6.36,-2.438 -3.922,0 -6.678,1.908 -2.65,1.908 -2.65,6.148 0,2.12 1.378,4.346 1.378,2.226 5.406,4.876 4.134,2.544 11.978,5.724 8.056,3.18 12.508,6.89 4.558,3.604 6.36,7.844 1.802,4.134 1.802,9.222 0,6.89 -3.816,12.19 -3.71,5.3 -10.706,8.374 -6.89,2.968 -16.324,2.968 z m 73.59195,0 q -12.72,0 -21.094,-4.876 -8.374,-4.876 -12.614,-13.674 -4.134,-8.798 -4.134,-20.564 0,-11.766 4.134,-20.458 4.24,-8.692 12.614,-13.462 8.48,-4.876 21.2,-4.876 12.084,0 20.458,4.876 8.374,4.77 12.72,13.568 4.346,8.692 4.346,20.458 0,11.766 -4.346,20.564 -4.346,8.692 -12.826,13.568 -8.374,4.876 -20.458,4.876 z m 0,-7.738 q 8.48,0 11.872,-8.268 3.498,-8.268 3.498,-23.002 0,-14.84 -3.392,-23.002 -3.392,-8.162 -11.872,-8.162 -8.586,0 -12.19,8.162 -3.498,8.162 -3.498,23.002 0,14.734 3.498,23.002 3.604,8.268 12.084,8.268 z M 370.32395,448 v -6.466 h 4.028 q 2.014,0 3.816,-0.954 1.908,-0.954 1.908,-4.876 v -50.986 q 0,-2.65 -1.06,-3.816 -0.954,-1.272 -2.332,-1.696 -1.272,-0.424 -2.332,-0.424 h -4.028 v -6.466 h 38.266 q 11.872,0 18.868,2.544 6.996,2.438 9.964,6.996 3.074,4.452 3.074,10.494 0,6.042 -2.12,9.964 -2.014,3.922 -5.406,6.148 -3.392,2.226 -7.526,3.392 l 12.084,20.458 q 2.862,4.876 4.876,7.102 2.12,2.12 4.77,2.12 h 0.742 V 448 h -4.982 q -9.222,0 -15.582,-1.802 -6.36,-1.802 -9.328,-7.738 l -11.13,-22.896 h -5.618 v 20.14 q 0,3.922 1.378,4.876 1.484,0.954 3.816,0.954 h 2.544 V 448 Z m 35.722,-39.432 q 6.254,0 9.01,-3.71 2.862,-3.816 2.862,-11.236 0,-7.632 -3.074,-10.918 -3.074,-3.286 -9.01,-3.286 h -4.558 v 29.15 z"
         id="text34"
         style="font-size:106px;letter-spacing:-4;fill:none;stroke:#e7a266;stroke-width:4;stroke-linejoin:round"
         aria-label="ANSOR" />
      <path
         d="m 64.826034,448 v -6.466 h 0.742 q 2.756,0 4.876,-1.378 2.226,-1.378 3.922,-5.936 l 22.578,-61.904 h 19.185996 l 21.624,62.116 q 1.378,3.71 3.498,5.406 2.226,1.696 5.194,1.696 h 1.166 V 448 h -39.22 v -6.466 h 4.24 q 1.696,0 3.074,-0.636 1.378,-0.636 1.378,-2.65 0,-1.484 -0.53,-2.968 -0.424,-1.59 -0.636,-2.226 l -3.286,-9.646 H 88.464034 l -2.438,7.632 q -0.318,1.272 -0.954,3.498 -0.53,2.12 -0.53,3.604 0,1.59 0.848,2.544 0.848,0.848 3.074,0.848 h 5.194 V 448 Z m 25.97,-31.906 h 19.503996 l -6.042,-20.246 q -0.742,-2.756 -1.696,-5.83 -0.848,-3.18 -1.484,-6.678 -0.848,3.392 -1.801996,6.572 -0.954,3.074 -1.802,5.83 z M 145.83805,448 v -6.466 h 3.498 q 2.862,0 4.558,-1.06 1.696,-1.06 1.696,-5.3 v -50.456 q 0,-3.922 -1.59,-4.876 -1.59,-1.06 -3.71,-1.06 h -4.452 v -6.466 h 26.606 l 36.994,48.654 v -36.252 q 0,-3.392 -1.484,-4.664 -1.484,-1.272 -3.604,-1.272 h -4.558 v -6.466 h 28.408 v 6.466 h -4.558 q -2.332,0 -3.816,1.484 -1.378,1.484 -1.378,4.876 V 448 h -11.342 l -42.506,-56.498 v 43.672 q 0,4.24 1.166,5.3 1.166,1.06 3.922,1.06 h 4.558 V 448 Z m 109.31397,1.06 q -8.586,0 -13.992,-1.484 -5.406,-1.484 -8.374,-3.816 -2.968,-2.332 -4.134,-4.876 -1.06,-2.544 -1.06,-4.558 0,-4.77 2.014,-7.314 2.12,-2.544 5.3,-3.498 3.18,-1.06 6.784,-1.06 0,7.208 2.332,11.448 2.438,4.24 6.042,6.148 3.71,1.802 7.42,1.802 5.618,0 8.586,-3.18 3.074,-3.286 3.074,-6.89 0,-5.088 -5.088,-8.162 -4.982,-3.18 -13.568,-6.678 -8.056,-3.286 -12.508,-6.996 -4.452,-3.71 -6.254,-7.95 -1.802,-4.24 -1.802,-8.904 0,-6.784 3.71,-11.66 3.816,-4.876 10.282,-7.526 6.466,-2.65 14.522,-2.65 8.586,0 13.992,2.014 5.512,2.014 8.056,5.088 2.544,2.968 2.544,6.254 0,3.922 -3.498,6.678 -3.392,2.756 -11.872,2.756 0,-3.604 -1.378,-7.102 -1.378,-3.604 -4.028,-5.936 -2.544,-2.438 -6.36,-2.438 -3.922,0 -6.678,1.908 -2.65,1.908 -2.65,6.148 0,2.12 1.378,4.346 1.378,2.226 5.406,4.876 4.134,2.544 11.978,5.724 8.056,3.18 12.508,6.89 4.558,3.604 6.36,7.844 1.802,4.134 1.802,9.222 0,6.89 -3.816,12.19 -3.71,5.3 -10.706,8.374 -6.89,2.968 -16.324,2.968 z m 73.59195,0 q -12.72,0 -21.094,-4.876 -8.374,-4.876 -12.614,-13.674 -4.134,-8.798 -4.134,-20.564 0,-11.766 4.134,-20.458 4.24,-8.692 12.614,-13.462 8.48,-4.876 21.2,-4.876 12.084,0 20.458,4.876 8.374,4.77 12.72,13.568 4.346,8.692 4.346,20.458 0,11.766 -4.346,20.564 -4.346,8.692 -12.826,13.568 -8.374,4.876 -20.458,4.876 z m 0,-7.738 q 8.48,0 11.872,-8.268 3.498,-8.268 3.498,-23.002 0,-14.84 -3.392,-23.002 -3.392,-8.162 -11.872,-8.162 -8.586,0 -12.19,8.162 -3.498,8.162 -3.498,23.002 0,14.734 3.498,23.002 3.604,8.268 12.084,8.268 z M 370.32395,448 v -6.466 h 4.028 q 2.014,0 3.816,-0.954 1.908,-0.954 1.908,-4.876 v -50.986 q 0,-2.65 -1.06,-3.816 -0.954,-1.272 -2.332,-1.696 -1.272,-0.424 -2.332,-0.424 h -4.028 v -6.466 h 38.266 q 11.872,0 18.868,2.544 6.996,2.438 9.964,6.996 3.074,4.452 3.074,10.494 0,6.042 -2.12,9.964 -2.014,3.922 -5.406,6.148 -3.392,2.226 -7.526,3.392 l 12.084,20.458 q 2.862,4.876 4.876,7.102 2.12,2.12 4.77,2.12 h 0.742 V 448 h -4.982 q -9.222,0 -15.582,-1.802 -6.36,-1.802 -9.328,-7.738 l -11.13,-22.896 h -5.618 v 20.14 q 0,3.922 1.378,4.876 1.484,0.954 3.816,0.954 h 2.544 V 448 Z m 35.722,-39.432 q 6.254,0 9.01,-3.71 2.862,-3.816 2.862,-11.236 0,-7.632 -3.074,-10.918 -3.074,-3.286 -9.01,-3.286 h -4.558 v 29.15 z"
         id="text35"
         style="font-size:106px;letter-spacing:-4;fill:url(#titleGrad);stroke:#2a120b;stroke-width:1.6;stroke-linejoin:round"
         aria-label="ANSOR" />
      <path
         d="M72 455 C145 470 366 470 440 455"
         fill="none"
         stroke="#f1c48c"
         stroke-width="3"
         opacity="0.9"
         id="path35" />
    </g>
    <!-- bottom slogan -->
    <g
       id="slogan"
       text-anchor="middle"
       font-family="Georgia, 'Noto Serif', 'Times New Roman', serif"
       font-weight="700">
      <path
         d="m 114.02294,500 v -1.166 h 0.924 q 0.462,0 0.792,-0.242 0.33,-0.242 0.33,-1.188 V 486.8 q 0,-0.88 -0.352,-1.1 -0.33,-0.242 -0.77,-0.242 h -0.924 v -1.166 h 7.59 v 1.166 h -0.946 q -0.462,0 -0.792,0.242 -0.33,0.242 -0.33,1.188 v 4.246 h 5.742 v -4.246 q 0,-0.946 -0.33,-1.188 -0.33,-0.242 -0.792,-0.242 h -0.946 v -1.166 h 7.59 v 1.166 h -0.924 q -0.462,0 -0.792,0.242 -0.33,0.242 -0.33,1.188 v 10.626 q 0,0.88 0.33,1.1 0.352,0.22 0.792,0.22 h 0.924 V 500 h -7.59 v -1.166 h 0.946 q 0.462,0 0.792,-0.242 0.33,-0.242 0.33,-1.188 v -4.928 h -5.742 v 4.928 q 0,0.946 0.33,1.188 0.33,0.242 0.792,0.242 h 0.946 V 500 Z m 21.84601,0.22 q -1.452,0 -2.464,-0.88 -0.99,-0.88 -0.99,-2.706 0,-1.782 1.232,-2.64 1.232,-0.858 3.696,-0.946 l 1.804,-0.066 v -1.21 q 0,-1.1 -0.242,-1.804 -0.22,-0.704 -1.122,-0.704 -0.836,0 -1.166,0.682 -0.308,0.66 -0.308,1.694 -1.474,0 -2.222,-0.33 -0.748,-0.33 -0.748,-1.144 0,-0.814 0.616,-1.298 0.616,-0.484 1.65,-0.704 1.034,-0.242 2.266,-0.242 2.31,0 3.454,0.836 1.166,0.836 1.166,2.904 v 5.61 q 0,0.902 0.286,1.232 0.286,0.33 1.034,0.33 h 0.088 V 500 h -4.092 l -0.462,-1.518 h -0.198 q -0.484,0.594 -0.924,0.99 -0.418,0.374 -0.968,0.55 -0.55,0.198 -1.386,0.198 z m 1.21,-1.606 q 0.946,0 1.496,-0.77 0.572,-0.77 0.572,-2.046 v -1.65 l -0.99,0.066 q -1.32,0.066 -1.826,0.704 -0.506,0.616 -0.506,1.804 0,1.892 1.254,1.892 z m 7.89802,1.386 v -1.166 h 0.264 q 0.33,0 0.682,-0.088 0.374,-0.11 0.616,-0.418 0.264,-0.308 0.264,-0.924 v -11.616 q 0,-0.594 -0.264,-0.88 -0.264,-0.286 -0.638,-0.374 -0.352,-0.088 -0.66,-0.088 h -0.264 v -1.166 h 5.17 v 14.124 q 0,0.616 0.242,0.924 0.264,0.308 0.638,0.418 0.374,0.088 0.682,0.088 h 0.264 V 500 Z m 14.07998,0.22 q -2.64,0 -4.158,-1.518 -1.518,-1.54 -1.518,-4.642 0,-3.102 1.452,-4.62 1.452,-1.518 4.29,-1.518 2.64,0 4.158,1.518 1.518,1.518 1.518,4.62 0,3.102 -1.474,4.642 -1.452,1.518 -4.268,1.518 z m 0.044,-1.386 q 1.276,0 1.782,-1.21 0.506,-1.232 0.506,-3.564 0,-2.354 -0.528,-3.542 -0.506,-1.188 -1.782,-1.188 -1.276,0 -1.782,1.188 -0.506,1.188 -0.506,3.542 0,2.332 0.506,3.564 0.528,1.21 1.804,1.21 z m 7.10602,1.166 v -1.166 h 0.264 q 0.33,0 0.682,-0.088 0.374,-0.11 0.616,-0.418 0.264,-0.308 0.264,-0.924 v -11.616 q 0,-0.594 -0.264,-0.88 -0.264,-0.286 -0.638,-0.374 -0.352,-0.088 -0.66,-0.088 h -0.264 v -1.166 h 5.17 v 14.124 q 0,0.616 0.242,0.924 0.264,0.308 0.638,0.418 0.374,0.088 0.682,0.088 h 0.264 V 500 Z m 19.79999,0.22 q -2.64,0 -4.158,-1.518 -1.518,-1.54 -1.518,-4.642 0,-3.102 1.452,-4.62 1.452,-1.518 4.29,-1.518 2.64,0 4.158,1.518 1.518,1.518 1.518,4.62 0,3.102 -1.474,4.642 -1.452,1.518 -4.268,1.518 z m 0.044,-1.386 q 1.276,0 1.782,-1.21 0.506,-1.232 0.506,-3.564 0,-2.354 -0.528,-3.542 -0.506,-1.188 -1.782,-1.188 -1.276,0 -1.782,1.188 -0.506,1.188 -0.506,3.542 0,2.332 0.506,3.564 0.528,1.21 1.804,1.21 z m 7.17202,1.166 v -1.166 h 0.044 q 0.748,0 1.232,-0.264 0.484,-0.264 0.484,-1.254 v -6.512 q 0,-0.924 -0.44,-1.166 -0.418,-0.264 -1.144,-0.264 h -0.066 v -1.166 h 4.62 l 0.286,1.562 h 0.11 q 0.44,-0.836 0.946,-1.21 0.528,-0.396 1.122,-0.506 0.616,-0.132 1.298,-0.132 1.694,0 2.662,1.012 0.968,1.012 0.968,3.234 v 5.104 q 0,1.012 0.352,1.298 0.374,0.264 1.122,0.264 h 0.066 V 500 h -4.884 v -7.238 q 0,-1.43 -0.396,-2.2 -0.396,-0.77 -1.364,-0.77 -0.726,0 -1.144,0.484 -0.418,0.462 -0.594,1.254 -0.176,0.77 -0.176,1.672 v 4.202 q 0,0.924 0.418,1.188 0.44,0.242 1.166,0.242 h 0.066 V 500 Z m 14.608,0 v -1.166 h 0.264 q 0.33,0 0.682,-0.088 0.374,-0.11 0.616,-0.418 0.264,-0.308 0.264,-0.924 v -11.616 q 0,-0.594 -0.264,-0.88 -0.264,-0.286 -0.638,-0.374 -0.352,-0.088 -0.66,-0.088 h -0.264 v -1.166 h 5.17 v 14.124 q 0,0.616 0.242,0.924 0.264,0.308 0.638,0.418 0.374,0.088 0.682,0.088 h 0.264 V 500 Z m 11.81399,0.22 q -1.452,0 -2.464,-0.88 -0.99,-0.88 -0.99,-2.706 0,-1.782 1.232,-2.64 1.232,-0.858 3.696,-0.946 l 1.804,-0.066 v -1.21 q 0,-1.1 -0.242,-1.804 -0.22,-0.704 -1.122,-0.704 -0.836,0 -1.166,0.682 -0.308,0.66 -0.308,1.694 -1.474,0 -2.222,-0.33 -0.748,-0.33 -0.748,-1.144 0,-0.814 0.616,-1.298 0.616,-0.484 1.65,-0.704 1.034,-0.242 2.266,-0.242 2.31,0 3.454,0.836 1.166,0.836 1.166,2.904 v 5.61 q 0,0.902 0.286,1.232 0.286,0.33 1.034,0.33 h 0.088 V 500 h -4.092 l -0.462,-1.518 h -0.198 q -0.484,0.594 -0.924,0.99 -0.418,0.374 -0.968,0.55 -0.55,0.198 -1.386,0.198 z m 1.21,-1.606 q 0.946,0 1.496,-0.77 0.572,-0.77 0.572,-2.046 v -1.65 l -0.99,0.066 q -1.32,0.066 -1.826,0.704 -0.506,0.616 -0.506,1.804 0,1.892 1.254,1.892 z m 7.678,5.39 q 1.54,0 2.464,-0.484 0.946,-0.484 1.496,-1.364 0.55,-0.88 0.902,-2.046 l -3.96,-9.68 q -0.242,-0.572 -0.594,-0.726 -0.352,-0.176 -0.814,-0.198 h -0.088 v -1.298 h 6.27 v 1.166 h -0.066 q -0.616,0 -0.968,0.176 -0.352,0.176 -0.352,0.638 0,0.176 0.066,0.44 0.088,0.242 0.154,0.418 l 1.518,4.026 q 0.308,0.836 0.44,1.364 0.132,0.528 0.176,0.968 0.044,-0.462 0.22,-1.034 0.198,-0.572 0.264,-0.726 l 1.452,-4.312 q 0.088,-0.22 0.154,-0.55 0.066,-0.33 0.066,-0.528 0,-0.484 -0.396,-0.66 -0.396,-0.198 -1.122,-0.22 h -0.088 v -1.166 h 4.95 v 1.166 h -0.088 q -0.616,0.022 -0.99,0.374 -0.352,0.33 -0.682,1.232 l -3.322,9.02 q -0.572,1.606 -1.1,2.618 -0.506,1.034 -1.188,1.606 -0.682,0.594 -1.738,0.814 -1.034,0.242 -2.662,0.242 h -0.374 z M 241.11698,500 v -1.166 h 0.044 q 0.748,0 1.232,-0.264 0.484,-0.264 0.484,-1.254 v -6.512 q 0,-0.924 -0.44,-1.166 -0.418,-0.264 -1.144,-0.264 h -0.066 v -1.166 h 4.62 l 0.286,1.562 h 0.11 q 0.44,-0.836 0.946,-1.21 0.528,-0.396 1.122,-0.506 0.616,-0.132 1.298,-0.132 1.694,0 2.662,1.012 0.968,1.012 0.968,3.234 v 5.104 q 0,1.012 0.352,1.298 0.374,0.264 1.122,0.264 h 0.066 V 500 h -4.884 v -7.238 q 0,-1.43 -0.396,-2.2 -0.396,-0.77 -1.364,-0.77 -0.726,0 -1.144,0.484 -0.418,0.462 -0.594,1.254 -0.176,0.77 -0.176,1.672 v 4.202 q 0,0.924 0.418,1.188 0.44,0.242 1.166,0.242 h 0.066 V 500 Z m 20.394,0 v -1.166 h 0.044 q 0.748,0 1.232,-0.264 0.484,-0.264 0.484,-1.254 v -6.578 q 0,-0.924 -0.44,-1.166 -0.418,-0.264 -1.144,-0.264 h -0.066 v -1.1 h 4.62 l 0.286,1.562 h 0.11 q 0.44,-0.836 0.946,-1.21 0.528,-0.396 1.122,-0.506 0.616,-0.132 1.298,-0.132 1.21,0 2.068,0.44 0.858,0.44 1.254,1.408 h 0.198 q 0.44,-0.836 0.99,-1.21 0.55,-0.396 1.188,-0.506 0.638,-0.132 1.32,-0.132 1.694,0 2.662,1.012 0.968,1.012 0.968,3.234 v 5.104 q 0,1.012 0.352,1.298 0.374,0.264 1.122,0.264 h 0.066 V 500 h -4.884 v -7.238 q 0,-1.43 -0.396,-2.2 -0.396,-0.77 -1.364,-0.77 -0.682,0 -1.122,0.44 -0.418,0.418 -0.616,1.144 -0.176,0.704 -0.176,1.562 v 4.334 q 0,1.012 0.352,1.298 0.374,0.264 1.122,0.264 h 0.066 V 500 h -4.884 v -7.238 q 0,-1.43 -0.396,-2.2 -0.396,-0.77 -1.364,-0.77 -0.726,0 -1.144,0.484 -0.418,0.462 -0.594,1.254 -0.176,0.77 -0.176,1.672 v 4.202 q 0,0.924 0.418,1.188 0.44,0.242 1.166,0.242 h 0.066 V 500 Z m 25.69601,0.22 q -1.452,0 -2.464,-0.88 -0.99,-0.88 -0.99,-2.706 0,-1.782 1.232,-2.64 1.232,-0.858 3.696,-0.946 l 1.804,-0.066 v -1.21 q 0,-1.1 -0.242,-1.804 -0.22,-0.704 -1.122,-0.704 -0.836,0 -1.166,0.682 -0.308,0.66 -0.308,1.694 -1.474,0 -2.222,-0.33 -0.748,-0.33 -0.748,-1.144 0,-0.814 0.616,-1.298 0.616,-0.484 1.65,-0.704 1.034,-0.242 2.266,-0.242 2.31,0 3.454,0.836 1.166,0.836 1.166,2.904 v 5.61 q 0,0.902 0.286,1.232 0.286,0.33 1.034,0.33 h 0.088 V 500 h -4.092 l -0.462,-1.518 h -0.198 q -0.484,0.594 -0.924,0.99 -0.418,0.374 -0.968,0.55 -0.55,0.198 -1.386,0.198 z m 1.21,-1.606 q 0.946,0 1.496,-0.77 0.572,-0.77 0.572,-2.046 v -1.65 l -0.99,0.066 q -1.32,0.066 -1.826,0.704 -0.506,0.616 -0.506,1.804 0,1.892 1.254,1.892 z M 296.381,500 v -1.166 h 0.044 q 0.748,0 1.232,-0.264 0.506,-0.264 0.506,-1.254 l -0.022,-11.528 q 0,-0.594 -0.264,-0.88 -0.264,-0.286 -0.638,-0.374 -0.352,-0.088 -0.66,-0.088 h -0.264 v -1.166 h 5.17 v 3.63 q 0,0.572 -0.044,1.232 -0.044,0.638 -0.088,1.1 -0.044,0.462 -0.044,0.462 h 0.198 q 0.44,-0.836 0.946,-1.21 0.528,-0.374 1.122,-0.462 0.616,-0.11 1.298,-0.11 1.694,0 2.662,1.012 0.968,1.012 0.968,3.234 v 5.104 q 0,1.012 0.352,1.298 0.374,0.264 1.122,0.264 h 0.066 V 500 h -4.884 v -7.238 q 0,-1.43 -0.396,-2.2 -0.396,-0.77 -1.364,-0.77 -0.726,0 -1.144,0.484 -0.418,0.462 -0.594,1.254 -0.176,0.77 -0.176,1.672 l 0.022,4.202 q 0,0.924 0.418,1.188 0.418,0.242 1.144,0.242 h 0.066 V 500 Z m 19.316,0.22 q -2.398,0 -3.41,-0.726 -1.012,-0.748 -1.012,-1.848 0,-0.726 0.352,-1.078 0.352,-0.352 0.836,-0.462 0.484,-0.132 0.858,-0.132 0,1.364 0.638,2.156 0.66,0.792 1.738,0.792 1.144,0 1.65,-0.44 0.528,-0.44 0.528,-1.056 0,-0.726 -0.572,-1.188 -0.572,-0.462 -2.134,-1.012 -1.782,-0.616 -2.728,-1.452 -0.946,-0.858 -0.946,-2.332 0,-1.76 1.298,-2.618 1.298,-0.88 3.432,-0.88 1.386,0 2.222,0.308 0.858,0.286 1.232,0.77 0.396,0.462 0.396,0.968 0,0.748 -0.528,1.144 -0.506,0.374 -1.716,0.374 0,-1.1 -0.484,-1.694 -0.484,-0.616 -1.452,-0.616 -0.704,0 -1.254,0.352 -0.528,0.33 -0.528,1.012 0,0.462 0.242,0.814 0.264,0.352 0.924,0.682 0.66,0.33 1.848,0.748 1.474,0.506 2.398,1.342 0.946,0.814 0.946,2.2 0,1.826 -1.254,2.86 -1.232,1.012 -3.52,1.012 z m 11.33002,0 q -1.716,0 -2.64,-1.056 -0.924,-1.078 -0.924,-3.3 v -4.928 q 0,-0.968 -0.352,-1.254 -0.352,-0.308 -1.144,-0.308 h -0.044 v -1.166 h 4.884 v 7.04 q 0,1.408 0.352,2.266 0.352,0.836 1.32,0.836 1.056,0 1.518,-0.902 0.484,-0.902 0.484,-2.442 v -4.224 q 0,-0.968 -0.484,-1.188 -0.462,-0.22 -1.1,-0.22 h -0.066 v -1.166 h 4.994 v 9.24 q 0,0.946 0.418,1.166 0.418,0.22 1.056,0.22 h 0.176 V 500 h -4.378 l -0.484,-1.562 h -0.11 q -0.66,1.144 -1.562,1.474 -0.88,0.308 -1.914,0.308 z m 9.372,-0.22 v -1.166 h 0.264 q 0.33,0 0.682,-0.088 0.374,-0.11 0.616,-0.418 0.264,-0.308 0.264,-0.924 v -11.616 q 0,-0.594 -0.264,-0.88 -0.264,-0.286 -0.638,-0.374 -0.352,-0.088 -0.66,-0.088 h -0.264 v -1.166 h 5.17 v 14.124 q 0,0.616 0.242,0.924 0.264,0.308 0.638,0.418 0.374,0.088 0.682,0.088 h 0.264 V 500 Z m 14.07998,0.22 q -2.64,0 -4.158,-1.518 -1.518,-1.54 -1.518,-4.642 0,-3.102 1.452,-4.62 1.452,-1.518 4.29,-1.518 2.64,0 4.158,1.518 1.518,1.518 1.518,4.62 0,3.102 -1.474,4.642 -1.452,1.518 -4.268,1.518 z m 0.044,-1.386 q 1.276,0 1.782,-1.21 0.506,-1.232 0.506,-3.564 0,-2.354 -0.528,-3.542 -0.506,-1.188 -1.782,-1.188 -1.276,0 -1.782,1.188 -0.506,1.188 -0.506,3.542 0,2.332 0.506,3.564 0.528,1.21 1.804,1.21 z m 12.07803,1.386 q -1.474,0 -2.354,-0.77 -0.88,-0.77 -0.88,-2.706 v -7.04 h -1.65 v -1.122 q 0.704,0 1.254,-0.286 0.572,-0.286 0.902,-0.638 0.682,-0.726 1.012,-2.178 h 1.826 v 2.728 h 2.816 v 1.496 h -2.816 v 6.82 q 0,0.99 0.33,1.452 0.352,0.462 1.122,0.462 0.44,0 0.814,-0.044 0.396,-0.066 0.748,-0.154 v 1.43 q -0.352,0.154 -1.166,0.352 -0.792,0.198 -1.958,0.198 z m 3.938,-0.22 v -1.166 h 0.264 q 0.33,0 0.682,-0.088 0.374,-0.11 0.616,-0.418 0.264,-0.308 0.264,-0.924 v -11.616 q 0,-0.594 -0.264,-0.88 -0.264,-0.286 -0.638,-0.374 -0.352,-0.088 -0.66,-0.088 h -0.264 v -1.166 h 5.17 v 14.124 q 0,0.616 0.242,0.924 0.264,0.308 0.638,0.418 0.374,0.088 0.682,0.088 h 0.264 V 500 Z m 11.81399,0.22 q -1.452,0 -2.464,-0.88 -0.99,-0.88 -0.99,-2.706 0,-1.782 1.232,-2.64 1.232,-0.858 3.696,-0.946 l 1.804,-0.066 v -1.21 q 0,-1.1 -0.242,-1.804 -0.22,-0.704 -1.122,-0.704 -0.836,0 -1.166,0.682 -0.308,0.66 -0.308,1.694 -1.474,0 -2.222,-0.33 -0.748,-0.33 -0.748,-1.144 0,-0.814 0.616,-1.298 0.616,-0.484 1.65,-0.704 1.034,-0.242 2.266,-0.242 2.31,0 3.454,0.836 1.166,0.836 1.166,2.904 v 5.61 q 0,0.902 0.286,1.232 0.286,0.33 1.034,0.33 h 0.088 V 500 h -4.092 l -0.462,-1.518 h -0.198 q -0.484,0.594 -0.924,0.99 -0.418,0.374 -0.968,0.55 -0.55,0.198 -1.386,0.198 z m 1.21,-1.606 q 0.946,0 1.496,-0.77 0.572,-0.77 0.572,-2.046 v -1.65 l -0.99,0.066 q -1.32,0.066 -1.826,0.704 -0.506,0.616 -0.506,1.804 0,1.892 1.254,1.892 z m 7.96401,1.386 v -1.166 h 0.066 q 0.748,0 1.21,-0.264 0.484,-0.286 0.484,-1.32 v -6.38 q 0,-0.968 -0.44,-1.232 -0.418,-0.264 -1.144,-0.264 h -0.066 v -1.166 h 4.444 l 0.44,1.716 h 0.11 q 0.44,-0.99 1.1,-1.474 0.66,-0.506 2.002,-0.506 2.53,0 2.53,1.782 0,1.012 -0.748,1.584 -0.726,0.55 -2.046,0.55 0,-0.902 -0.22,-1.364 -0.22,-0.462 -0.858,-0.462 -0.572,0 -0.924,0.396 -0.352,0.396 -0.528,0.99 -0.176,0.572 -0.242,1.166 -0.066,0.594 -0.066,0.968 v 3.806 q 0,0.968 0.44,1.232 0.44,0.242 1.1,0.242 h 0.704 V 500 Z"
         id="text36"
         style="font-size:22px;fill:none;stroke:#fff7ee;stroke-width:5;stroke-linejoin:round"
         aria-label="Halol onlayn mahsulotlar" />
      <path
         d="m 114.02294,500 v -1.166 h 0.924 q 0.462,0 0.792,-0.242 0.33,-0.242 0.33,-1.188 V 486.8 q 0,-0.88 -0.352,-1.1 -0.33,-0.242 -0.77,-0.242 h -0.924 v -1.166 h 7.59 v 1.166 h -0.946 q -0.462,0 -0.792,0.242 -0.33,0.242 -0.33,1.188 v 4.246 h 5.742 v -4.246 q 0,-0.946 -0.33,-1.188 -0.33,-0.242 -0.792,-0.242 h -0.946 v -1.166 h 7.59 v 1.166 h -0.924 q -0.462,0 -0.792,0.242 -0.33,0.242 -0.33,1.188 v 10.626 q 0,0.88 0.33,1.1 0.352,0.22 0.792,0.22 h 0.924 V 500 h -7.59 v -1.166 h 0.946 q 0.462,0 0.792,-0.242 0.33,-0.242 0.33,-1.188 v -4.928 h -5.742 v 4.928 q 0,0.946 0.33,1.188 0.33,0.242 0.792,0.242 h 0.946 V 500 Z m 21.84601,0.22 q -1.452,0 -2.464,-0.88 -0.99,-0.88 -0.99,-2.706 0,-1.782 1.232,-2.64 1.232,-0.858 3.696,-0.946 l 1.804,-0.066 v -1.21 q 0,-1.1 -0.242,-1.804 -0.22,-0.704 -1.122,-0.704 -0.836,0 -1.166,0.682 -0.308,0.66 -0.308,1.694 -1.474,0 -2.222,-0.33 -0.748,-0.33 -0.748,-1.144 0,-0.814 0.616,-1.298 0.616,-0.484 1.65,-0.704 1.034,-0.242 2.266,-0.242 2.31,0 3.454,0.836 1.166,0.836 1.166,2.904 v 5.61 q 0,0.902 0.286,1.232 0.286,0.33 1.034,0.33 h 0.088 V 500 h -4.092 l -0.462,-1.518 h -0.198 q -0.484,0.594 -0.924,0.99 -0.418,0.374 -0.968,0.55 -0.55,0.198 -1.386,0.198 z m 1.21,-1.606 q 0.946,0 1.496,-0.77 0.572,-0.77 0.572,-2.046 v -1.65 l -0.99,0.066 q -1.32,0.066 -1.826,0.704 -0.506,0.616 -0.506,1.804 0,1.892 1.254,1.892 z m 7.89802,1.386 v -1.166 h 0.264 q 0.33,0 0.682,-0.088 0.374,-0.11 0.616,-0.418 0.264,-0.308 0.264,-0.924 v -11.616 q 0,-0.594 -0.264,-0.88 -0.264,-0.286 -0.638,-0.374 -0.352,-0.088 -0.66,-0.088 h -0.264 v -1.166 h 5.17 v 14.124 q 0,0.616 0.242,0.924 0.264,0.308 0.638,0.418 0.374,0.088 0.682,0.088 h 0.264 V 500 Z m 14.07998,0.22 q -2.64,0 -4.158,-1.518 -1.518,-1.54 -1.518,-4.642 0,-3.102 1.452,-4.62 1.452,-1.518 4.29,-1.518 2.64,0 4.158,1.518 1.518,1.518 1.518,4.62 0,3.102 -1.474,4.642 -1.452,1.518 -4.268,1.518 z m 0.044,-1.386 q 1.276,0 1.782,-1.21 0.506,-1.232 0.506,-3.564 0,-2.354 -0.528,-3.542 -0.506,-1.188 -1.782,-1.188 -1.276,0 -1.782,1.188 -0.506,1.188 -0.506,3.542 0,2.332 0.506,3.564 0.528,1.21 1.804,1.21 z m 7.10602,1.166 v -1.166 h 0.264 q 0.33,0 0.682,-0.088 0.374,-0.11 0.616,-0.418 0.264,-0.308 0.264,-0.924 v -11.616 q 0,-0.594 -0.264,-0.88 -0.264,-0.286 -0.638,-0.374 -0.352,-0.088 -0.66,-0.088 h -0.264 v -1.166 h 5.17 v 14.124 q 0,0.616 0.242,0.924 0.264,0.308 0.638,0.418 0.374,0.088 0.682,0.088 h 0.264 V 500 Z m 19.79999,0.22 q -2.64,0 -4.158,-1.518 -1.518,-1.54 -1.518,-4.642 0,-3.102 1.452,-4.62 1.452,-1.518 4.29,-1.518 2.64,0 4.158,1.518 1.518,1.518 1.518,4.62 0,3.102 -1.474,4.642 -1.452,1.518 -4.268,1.518 z m 0.044,-1.386 q 1.276,0 1.782,-1.21 0.506,-1.232 0.506,-3.564 0,-2.354 -0.528,-3.542 -0.506,-1.188 -1.782,-1.188 -1.276,0 -1.782,1.188 -0.506,1.188 -0.506,3.542 0,2.332 0.506,3.564 0.528,1.21 1.804,1.21 z m 7.17202,1.166 v -1.166 h 0.044 q 0.748,0 1.232,-0.264 0.484,-0.264 0.484,-1.254 v -6.512 q 0,-0.924 -0.44,-1.166 -0.418,-0.264 -1.144,-0.264 h -0.066 v -1.166 h 4.62 l 0.286,1.562 h 0.11 q 0.44,-0.836 0.946,-1.21 0.528,-0.396 1.122,-0.506 0.616,-0.132 1.298,-0.132 1.694,0 2.662,1.012 0.968,1.012 0.968,3.234 v 5.104 q 0,1.012 0.352,1.298 0.374,0.264 1.122,0.264 h 0.066 V 500 h -4.884 v -7.238 q 0,-1.43 -0.396,-2.2 -0.396,-0.77 -1.364,-0.77 -0.726,0 -1.144,0.484 -0.418,0.462 -0.594,1.254 -0.176,0.77 -0.176,1.672 v 4.202 q 0,0.924 0.418,1.188 0.44,0.242 1.166,0.242 h 0.066 V 500 Z m 14.608,0 v -1.166 h 0.264 q 0.33,0 0.682,-0.088 0.374,-0.11 0.616,-0.418 0.264,-0.308 0.264,-0.924 v -11.616 q 0,-0.594 -0.264,-0.88 -0.264,-0.286 -0.638,-0.374 -0.352,-0.088 -0.66,-0.088 h -0.264 v -1.166 h 5.17 v 14.124 q 0,0.616 0.242,0.924 0.264,0.308 0.638,0.418 0.374,0.088 0.682,0.088 h 0.264 V 500 Z m 11.81399,0.22 q -1.452,0 -2.464,-0.88 -0.99,-0.88 -0.99,-2.706 0,-1.782 1.232,-2.64 1.232,-0.858 3.696,-0.946 l 1.804,-0.066 v -1.21 q 0,-1.1 -0.242,-1.804 -0.22,-0.704 -1.122,-0.704 -0.836,0 -1.166,0.682 -0.308,0.66 -0.308,1.694 -1.474,0 -2.222,-0.33 -0.748,-0.33 -0.748,-1.144 0,-0.814 0.616,-1.298 0.616,-0.484 1.65,-0.704 1.034,-0.242 2.266,-0.242 2.31,0 3.454,0.836 1.166,0.836 1.166,2.904 v 5.61 q 0,0.902 0.286,1.232 0.286,0.33 1.034,0.33 h 0.088 V 500 h -4.092 l -0.462,-1.518 h -0.198 q -0.484,0.594 -0.924,0.99 -0.418,0.374 -0.968,0.55 -0.55,0.198 -1.386,0.198 z m 1.21,-1.606 q 0.946,0 1.496,-0.77 0.572,-0.77 0.572,-2.046 v -1.65 l -0.99,0.066 q -1.32,0.066 -1.826,0.704 -0.506,0.616 -0.506,1.804 0,1.892 1.254,1.892 z m 7.678,5.39 q 1.54,0 2.464,-0.484 0.946,-0.484 1.496,-1.364 0.55,-0.88 0.902,-2.046 l -3.96,-9.68 q -0.242,-0.572 -0.594,-0.726 -0.352,-0.176 -0.814,-0.198 h -0.088 v -1.298 h 6.27 v 1.166 h -0.066 q -0.616,0 -0.968,0.176 -0.352,0.176 -0.352,0.638 0,0.176 0.066,0.44 0.088,0.242 0.154,0.418 l 1.518,4.026 q 0.308,0.836 0.44,1.364 0.132,0.528 0.176,0.968 0.044,-0.462 0.22,-1.034 0.198,-0.572 0.264,-0.726 l 1.452,-4.312 q 0.088,-0.22 0.154,-0.55 0.066,-0.33 0.066,-0.528 0,-0.484 -0.396,-0.66 -0.396,-0.198 -1.122,-0.22 h -0.088 v -1.166 h 4.95 v 1.166 h -0.088 q -0.616,0.022 -0.99,0.374 -0.352,0.33 -0.682,1.232 l -3.322,9.02 q -0.572,1.606 -1.1,2.618 -0.506,1.034 -1.188,1.606 -0.682,0.594 -1.738,0.814 -1.034,0.242 -2.662,0.242 h -0.374 z M 241.11698,500 v -1.166 h 0.044 q 0.748,0 1.232,-0.264 0.484,-0.264 0.484,-1.254 v -6.512 q 0,-0.924 -0.44,-1.166 -0.418,-0.264 -1.144,-0.264 h -0.066 v -1.166 h 4.62 l 0.286,1.562 h 0.11 q 0.44,-0.836 0.946,-1.21 0.528,-0.396 1.122,-0.506 0.616,-0.132 1.298,-0.132 1.694,0 2.662,1.012 0.968,1.012 0.968,3.234 v 5.104 q 0,1.012 0.352,1.298 0.374,0.264 1.122,0.264 h 0.066 V 500 h -4.884 v -7.238 q 0,-1.43 -0.396,-2.2 -0.396,-0.77 -1.364,-0.77 -0.726,0 -1.144,0.484 -0.418,0.462 -0.594,1.254 -0.176,0.77 -0.176,1.672 v 4.202 q 0,0.924 0.418,1.188 0.44,0.242 1.166,0.242 h 0.066 V 500 Z m 20.394,0 v -1.166 h 0.044 q 0.748,0 1.232,-0.264 0.484,-0.264 0.484,-1.254 v -6.578 q 0,-0.924 -0.44,-1.166 -0.418,-0.264 -1.144,-0.264 h -0.066 v -1.1 h 4.62 l 0.286,1.562 h 0.11 q 0.44,-0.836 0.946,-1.21 0.528,-0.396 1.122,-0.506 0.616,-0.132 1.298,-0.132 1.21,0 2.068,0.44 0.858,0.44 1.254,1.408 h 0.198 q 0.44,-0.836 0.99,-1.21 0.55,-0.396 1.188,-0.506 0.638,-0.132 1.32,-0.132 1.694,0 2.662,1.012 0.968,1.012 0.968,3.234 v 5.104 q 0,1.012 0.352,1.298 0.374,0.264 1.122,0.264 h 0.066 V 500 h -4.884 v -7.238 q 0,-1.43 -0.396,-2.2 -0.396,-0.77 -1.364,-0.77 -0.682,0 -1.122,0.44 -0.418,0.418 -0.616,1.144 -0.176,0.704 -0.176,1.562 v 4.334 q 0,1.012 0.352,1.298 0.374,0.264 1.122,0.264 h 0.066 V 500 h -4.884 v -7.238 q 0,-1.43 -0.396,-2.2 -0.396,-0.77 -1.364,-0.77 -0.726,0 -1.144,0.484 -0.418,0.462 -0.594,1.254 -0.176,0.77 -0.176,1.672 v 4.202 q 0,0.924 0.418,1.188 0.44,0.242 1.166,0.242 h 0.066 V 500 Z m 25.69601,0.22 q -1.452,0 -2.464,-0.88 -0.99,-0.88 -0.99,-2.706 0,-1.782 1.232,-2.64 1.232,-0.858 3.696,-0.946 l 1.804,-0.066 v -1.21 q 0,-1.1 -0.242,-1.804 -0.22,-0.704 -1.122,-0.704 -0.836,0 -1.166,0.682 -0.308,0.66 -0.308,1.694 -1.474,0 -2.222,-0.33 -0.748,-0.33 -0.748,-1.144 0,-0.814 0.616,-1.298 0.616,-0.484 1.65,-0.704 1.034,-0.242 2.266,-0.242 2.31,0 3.454,0.836 1.166,0.836 1.166,2.904 v 5.61 q 0,0.902 0.286,1.232 0.286,0.33 1.034,0.33 h 0.088 V 500 h -4.092 l -0.462,-1.518 h -0.198 q -0.484,0.594 -0.924,0.99 -0.418,0.374 -0.968,0.55 -0.55,0.198 -1.386,0.198 z m 1.21,-1.606 q 0.946,0 1.496,-0.77 0.572,-0.77 0.572,-2.046 v -1.65 l -0.99,0.066 q -1.32,0.066 -1.826,0.704 -0.506,0.616 -0.506,1.804 0,1.892 1.254,1.892 z M 296.381,500 v -1.166 h 0.044 q 0.748,0 1.232,-0.264 0.506,-0.264 0.506,-1.254 l -0.022,-11.528 q 0,-0.594 -0.264,-0.88 -0.264,-0.286 -0.638,-0.374 -0.352,-0.088 -0.66,-0.088 h -0.264 v -1.166 h 5.17 v 3.63 q 0,0.572 -0.044,1.232 -0.044,0.638 -0.088,1.1 -0.044,0.462 -0.044,0.462 h 0.198 q 0.44,-0.836 0.946,-1.21 0.528,-0.374 1.122,-0.462 0.616,-0.11 1.298,-0.11 1.694,0 2.662,1.012 0.968,1.012 0.968,3.234 v 5.104 q 0,1.012 0.352,1.298 0.374,0.264 1.122,0.264 h 0.066 V 500 h -4.884 v -7.238 q 0,-1.43 -0.396,-2.2 -0.396,-0.77 -1.364,-0.77 -0.726,0 -1.144,0.484 -0.418,0.462 -0.594,1.254 -0.176,0.77 -0.176,1.672 l 0.022,4.202 q 0,0.924 0.418,1.188 0.418,0.242 1.144,0.242 h 0.066 V 500 Z m 19.316,0.22 q -2.398,0 -3.41,-0.726 -1.012,-0.748 -1.012,-1.848 0,-0.726 0.352,-1.078 0.352,-0.352 0.836,-0.462 0.484,-0.132 0.858,-0.132 0,1.364 0.638,2.156 0.66,0.792 1.738,0.792 1.144,0 1.65,-0.44 0.528,-0.44 0.528,-1.056 0,-0.726 -0.572,-1.188 -0.572,-0.462 -2.134,-1.012 -1.782,-0.616 -2.728,-1.452 -0.946,-0.858 -0.946,-2.332 0,-1.76 1.298,-2.618 1.298,-0.88 3.432,-0.88 1.386,0 2.222,0.308 0.858,0.286 1.232,0.77 0.396,0.462 0.396,0.968 0,0.748 -0.528,1.144 -0.506,0.374 -1.716,0.374 0,-1.1 -0.484,-1.694 -0.484,-0.616 -1.452,-0.616 -0.704,0 -1.254,0.352 -0.528,0.33 -0.528,1.012 0,0.462 0.242,0.814 0.264,0.352 0.924,0.682 0.66,0.33 1.848,0.748 1.474,0.506 2.398,1.342 0.946,0.814 0.946,2.2 0,1.826 -1.254,2.86 -1.232,1.012 -3.52,1.012 z m 11.33002,0 q -1.716,0 -2.64,-1.056 -0.924,-1.078 -0.924,-3.3 v -4.928 q 0,-0.968 -0.352,-1.254 -0.352,-0.308 -1.144,-0.308 h -0.044 v -1.166 h 4.884 v 7.04 q 0,1.408 0.352,2.266 0.352,0.836 1.32,0.836 1.056,0 1.518,-0.902 0.484,-0.902 0.484,-2.442 v -4.224 q 0,-0.968 -0.484,-1.188 -0.462,-0.22 -1.1,-0.22 h -0.066 v -1.166 h 4.994 v 9.24 q 0,0.946 0.418,1.166 0.418,0.22 1.056,0.22 h 0.176 V 500 h -4.378 l -0.484,-1.562 h -0.11 q -0.66,1.144 -1.562,1.474 -0.88,0.308 -1.914,0.308 z m 9.372,-0.22 v -1.166 h 0.264 q 0.33,0 0.682,-0.088 0.374,-0.11 0.616,-0.418 0.264,-0.308 0.264,-0.924 v -11.616 q 0,-0.594 -0.264,-0.88 -0.264,-0.286 -0.638,-0.374 -0.352,-0.088 -0.66,-0.088 h -0.264 v -1.166 h 5.17 v 14.124 q 0,0.616 0.242,0.924 0.264,0.308 0.638,0.418 0.374,0.088 0.682,0.088 h 0.264 V 500 Z m 14.07998,0.22 q -2.64,0 -4.158,-1.518 -1.518,-1.54 -1.518,-4.642 0,-3.102 1.452,-4.62 1.452,-1.518 4.29,-1.518 2.64,0 4.158,1.518 1.518,1.518 1.518,4.62 0,3.102 -1.474,4.642 -1.452,1.518 -4.268,1.518 z m 0.044,-1.386 q 1.276,0 1.782,-1.21 0.506,-1.232 0.506,-3.564 0,-2.354 -0.528,-3.542 -0.506,-1.188 -1.782,-1.188 -1.276,0 -1.782,1.188 -0.506,1.188 -0.506,3.542 0,2.332 0.506,3.564 0.528,1.21 1.804,1.21 z m 12.07803,1.386 q -1.474,0 -2.354,-0.77 -0.88,-0.77 -0.88,-2.706 v -7.04 h -1.65 v -1.122 q 0.704,0 1.254,-0.286 0.572,-0.286 0.902,-0.638 0.682,-0.726 1.012,-2.178 h 1.826 v 2.728 h 2.816 v 1.496 h -2.816 v 6.82 q 0,0.99 0.33,1.452 0.352,0.462 1.122,0.462 0.44,0 0.814,-0.044 0.396,-0.066 0.748,-0.154 v 1.43 q -0.352,0.154 -1.166,0.352 -0.792,0.198 -1.958,0.198 z m 3.938,-0.22 v -1.166 h 0.264 q 0.33,0 0.682,-0.088 0.374,-0.11 0.616,-0.418 0.264,-0.308 0.264,-0.924 v -11.616 q 0,-0.594 -0.264,-0.88 -0.264,-0.286 -0.638,-0.374 -0.352,-0.088 -0.66,-0.088 h -0.264 v -1.166 h 5.17 v 14.124 q 0,0.616 0.242,0.924 0.264,0.308 0.638,0.418 0.374,0.088 0.682,0.088 h 0.264 V 500 Z m 11.81399,0.22 q -1.452,0 -2.464,-0.88 -0.99,-0.88 -0.99,-2.706 0,-1.782 1.232,-2.64 1.232,-0.858 3.696,-0.946 l 1.804,-0.066 v -1.21 q 0,-1.1 -0.242,-1.804 -0.22,-0.704 -1.122,-0.704 -0.836,0 -1.166,0.682 -0.308,0.66 -0.308,1.694 -1.474,0 -2.222,-0.33 -0.748,-0.33 -0.748,-1.144 0,-0.814 0.616,-1.298 0.616,-0.484 1.65,-0.704 1.034,-0.242 2.266,-0.242 2.31,0 3.454,0.836 1.166,0.836 1.166,2.904 v 5.61 q 0,0.902 0.286,1.232 0.286,0.33 1.034,0.33 h 0.088 V 500 h -4.092 l -0.462,-1.518 h -0.198 q -0.484,0.594 -0.924,0.99 -0.418,0.374 -0.968,0.55 -0.55,0.198 -1.386,0.198 z m 1.21,-1.606 q 0.946,0 1.496,-0.77 0.572,-0.77 0.572,-2.046 v -1.65 l -0.99,0.066 q -1.32,0.066 -1.826,0.704 -0.506,0.616 -0.506,1.804 0,1.892 1.254,1.892 z m 7.96401,1.386 v -1.166 h 0.066 q 0.748,0 1.21,-0.264 0.484,-0.286 0.484,-1.32 v -6.38 q 0,-0.968 -0.44,-1.232 -0.418,-0.264 -1.144,-0.264 h -0.066 v -1.166 h 4.444 l 0.44,1.716 h 0.11 q 0.44,-0.99 1.1,-1.474 0.66,-0.506 2.002,-0.506 2.53,0 2.53,1.782 0,1.012 -0.748,1.584 -0.726,0.55 -2.046,0.55 0,-0.902 -0.22,-1.364 -0.22,-0.462 -0.858,-0.462 -0.572,0 -0.924,0.396 -0.352,0.396 -0.528,0.99 -0.176,0.572 -0.242,1.166 -0.066,0.594 -0.066,0.968 v 3.806 q 0,0.968 0.44,1.232 0.44,0.242 1.1,0.242 h 0.704 V 500 Z"
         id="text37"
         style="font-size:22px;fill:#5e2a1e;stroke:#e7a266;stroke-linejoin:round"
         aria-label="Halol onlayn mahsulotlar" />
    </g>
  </g>
</svg>
